<?xml version='1.0' encoding='utf-8'?>
<svg xmlns="http://www.w3.org/2000/svg" version="1.1" viewBox="0.0 0.0 918.1391076115485 284.2703412073491" fill="none" stroke="none" stroke-linecap="square" stroke-miterlimit="10">
  <defs><clipPath id="roundedClip"><rect x="0" y="0" width="1000" height="1000" rx="20" ry="20" /></clipPath></defs><g clip-path="url(#roundedClip)"><rect width="100%" height="100%" fill="white" /><clipPath id="p.0"><path d="m0 0l918.1391 0l0 284.27036l-918.1391 0l0 -284.27036z" clip-rule="nonzero" /></clipPath><g clip-path="url(#p.0)"><path fill="#000000" fill-opacity="0.0" d="m0 0l918.1391 0l0 284.27036l-918.1391 0z" fill-rule="evenodd" /><path stroke="#000000" stroke-width="3.0" stroke-linecap="butt" d="m288.25986 24.816273l0 46.35433" fill-rule="nonzero" /><path stroke="#000000" stroke-width="3.0" stroke-linecap="butt" d="m458.10498 24.816273l0 46.35433" fill-rule="nonzero" /><path stroke="#000000" stroke-width="3.0" stroke-linecap="butt" d="m630.0184 24.816273l0 46.35433" fill-rule="nonzero" /><path stroke="#000000" stroke-width="3.0" stroke-linecap="butt" d="m286.76117 26.31496l344.75592 0" fill-rule="nonzero" /><path stroke="#000000" stroke-width="3.0" stroke-linecap="butt" d="m286.76117 69.67191l344.75592 0" fill-rule="nonzero" /><path fill="#000000" d="m298.40048 56.987812l0 -14.6875l3.890625 0l0 1.71875l-1.796875 0l0 11.234375l1.796875 0l0 1.734375l-3.890625 0zm8.578125 -14.734375q1.671875 0 2.609375 1.1875q1.109375 1.40625 1.109375 4.65625q0 3.25 -1.125 4.671875q-0.921875 1.1875 -2.59375 1.1875q-1.671875 0 -2.703125 -1.28125q-1.015625 -1.296875 -1.015625 -4.59375q0 -3.234375 1.125 -4.65625q0.9375 -1.171875 2.59375 -1.171875zm0 1.8125q-0.390625 0 -0.703125 0.265625q-0.3125 0.25 -0.484375 0.90625q-0.234375 0.84375 -0.234375 2.859375q0 2.015625 0.203125 2.78125q0.203125 0.75 0.515625 1.0q0.3125 0.25 0.703125 0.25q0.40625 0 0.71875 -0.25q0.3125 -0.265625 0.484375 -0.921875q0.21875 -0.84375 0.21875 -2.859375q0 -2.015625 -0.203125 -2.765625q-0.203125 -0.75 -0.515625 -1.0q-0.296875 -0.265625 -0.703125 -0.265625zm6.4296875 3.5l-1.1875 -0.921875q0.5625 -0.625 1.171875 -1.203125q0.25 -0.234375 0.3125 -0.296875q-0.203125 -0.03125 -1.125 -0.265625q-0.65625 -0.15625 -0.875 -0.234375l0.46875 -1.375q1.015625 0.40625 1.828125 0.90625q-0.1875 -1.265625 -0.1875 -2.078125l1.390625 0q0 0.578125 -0.21875 2.09375q0.15625 -0.0625 0.671875 -0.296875q0.703125 -0.328125 1.296875 -0.546875l0.421875 1.40625q-0.875 0.203125 -2.015625 0.390625l0.9375 1.046875q0.28125 0.328125 0.453125 0.53125l-1.203125 0.78125l-1.046875 -1.734375q-0.484375 0.84375 -1.09375 1.796875zm13.0078125 6.1875l-2.203125 0l0 -4.234375q0 -1.34375 -0.140625 -1.734375q-0.140625 -0.40625 -0.453125 -0.625q-0.3125 -0.21875 -0.765625 -0.21875q-0.5625 0 -1.015625 0.3125q-0.453125 0.3125 -0.625 0.828125q-0.171875 0.515625 -0.171875 1.90625l0 3.765625l-2.1875 0l0 -8.296875l2.03125 0l0 1.21875q1.09375 -1.40625 2.734375 -1.40625q0.734375 0 1.328125 0.265625q0.609375 0.25 0.90625 0.65625q0.3125 0.40625 0.4375 0.921875q0.125 0.515625 0.125 1.484375l0 5.15625zm1.9765625 -5.40625l2.9375 -6.25l1.734375 0l2.859375 6.25l-2.21875 0l-1.546875 -3.828125l-1.53125 3.828125l-2.234375 0zm13.234375 8.78125l-1.515625 0q-1.1875 -1.8125 -1.8125 -3.75q-0.625 -1.953125 -0.625 -3.78125q0 -2.25 0.765625 -4.265625q0.671875 -1.75 1.703125 -3.234375l1.5 0q-1.0625 2.375 -1.46875 4.03125q-0.40625 1.65625 -0.40625 3.515625q0 1.28125 0.234375 2.625q0.25 1.34375 0.65625 2.5625q0.28125 0.796875 0.96875 2.296875zm8.625 -5.421875l0 2.046875l-7.6875 0q0.125 -1.15625 0.75 -2.1875q0.625 -1.046875 2.46875 -2.75q1.484375 -1.390625 1.8125 -1.875q0.453125 -0.6875 0.453125 -1.34375q0 -0.734375 -0.390625 -1.125q-0.390625 -0.40625 -1.09375 -0.40625q-0.6875 0 -1.09375 0.421875q-0.40625 0.40625 -0.46875 1.375l-2.1875 -0.21875q0.203125 -1.8125 1.234375 -2.59375q1.03125 -0.796875 2.578125 -0.796875q1.6875 0 2.65625 0.921875q0.96875 0.90625 0.96875 2.265625q0 0.765625 -0.28125 1.46875q-0.265625 0.703125 -0.875 1.46875q-0.390625 0.5 -1.4375 1.453125q-1.03125 0.953125 -1.3125 1.265625q-0.28125 0.3125 -0.453125 0.609375l4.359375 0zm0.7734375 2.25l2.84375 -11.859375l1.65625 0l-2.875 11.859375l-1.625 0zm5.0859375 -3.25l2.125 -0.25q0.09375 0.8125 0.53125 1.25q0.453125 0.421875 1.09375 0.421875q0.671875 0 1.140625 -0.515625q0.46875 -0.515625 0.46875 -1.390625q0 -0.828125 -0.453125 -1.3125q-0.4375 -0.484375 -1.078125 -0.484375q-0.421875 0 -1.015625 0.15625l0.25 -1.78125q0.890625 0.015625 1.359375 -0.390625q0.46875 -0.40625 0.46875 -1.09375q0 -0.578125 -0.34375 -0.921875q-0.34375 -0.34375 -0.921875 -0.34375q-0.5625 0 -0.96875 0.390625q-0.390625 0.390625 -0.46875 1.140625l-2.03125 -0.34375q0.21875 -1.03125 0.640625 -1.65625q0.421875 -0.625 1.1875 -0.96875q0.765625 -0.359375 1.703125 -0.359375q1.625 0 2.59375 1.03125q0.8125 0.84375 0.8125 1.90625q0 1.5 -1.65625 2.40625q0.984375 0.203125 1.578125 0.9375q0.59375 0.734375 0.59375 1.78125q0 1.5 -1.109375 2.578125q-1.09375 1.0625 -2.734375 1.0625q-1.5625 0 -2.59375 -0.890625q-1.015625 -0.90625 -1.171875 -2.359375zm8.8359375 6.421875q0.640625 -1.390625 0.90625 -2.140625q0.265625 -0.734375 0.484375 -1.703125q0.234375 -0.984375 0.34375 -1.84375q0.109375 -0.875 0.109375 -1.796875q0 -1.859375 -0.40625 -3.515625q-0.390625 -1.65625 -1.453125 -4.03125l1.484375 0q1.1875 1.6875 1.828125 3.578125q0.65625 1.875 0.65625 3.8125q0 1.625 -0.515625 3.5q-0.578125 2.09375 -1.921875 4.140625l-1.515625 0zm5.875 -5.578125l2.203125 0l0 1.578125q0 0.953125 -0.171875 1.5q-0.15625 0.5625 -0.625 1.0q-0.453125 0.4375 -1.15625 0.6875l-0.421875 -0.90625q0.65625 -0.21875 0.9375 -0.609375q0.28125 -0.375 0.296875 -1.046875l-1.0625 0l0 -2.203125zm9.6484375 2.203125l-2.1875 0l0 -8.28125q-1.203125 1.125 -2.84375 1.671875l0 -2.0q0.859375 -0.28125 1.859375 -1.0625q1.015625 -0.78125 1.390625 -1.828125l1.78125 0l0 11.5zm4.5234375 -6.1875l-1.1875 -0.921875q0.5625 -0.625 1.171875 -1.203125q0.25 -0.234375 0.3125 -0.296875q-0.203125 -0.03125 -1.125 -0.265625q-0.65625 -0.15625 -0.875 -0.234375l0.46875 -1.375q1.015625 0.40625 1.828125 0.90625q-0.1875 -1.265625 -0.1875 -2.078125l1.390625 0q0 0.578125 -0.21875 2.09375q0.15625 -0.0625 0.671875 -0.296875q0.703125 -0.328125 1.296875 -0.546875l0.421875 1.40625q-0.875 0.203125 -2.015625 0.390625l0.9375 1.046875q0.28125 0.328125 0.453125 0.53125l-1.203125 0.78125l-1.046875 -1.734375q-0.484375 0.84375 -1.09375 1.796875zm13.0078125 6.1875l-2.203125 0l0 -4.234375q0 -1.34375 -0.140625 -1.734375q-0.140625 -0.40625 -0.453125 -0.625q-0.3125 -0.21875 -0.765625 -0.21875q-0.5625 0 -1.015625 0.3125q-0.453125 0.3125 -0.625 0.828125q-0.171875 0.515625 -0.171875 1.90625l0 3.765625l-2.1875 0l0 -8.296875l2.03125 0l0 1.21875q1.09375 -1.40625 2.734375 -1.40625q0.734375 0 1.328125 0.265625q0.609375 0.25 0.90625 0.65625q0.3125 0.40625 0.4375 0.921875q0.125 0.515625 0.125 1.484375l0 5.15625zm1.9765625 -5.40625l2.9375 -6.25l1.734375 0l2.859375 6.25l-2.21875 0l-1.546875 -3.828125l-1.53125 3.828125l-2.234375 0zm13.234375 8.78125l-1.515625 0q-1.1875 -1.8125 -1.8125 -3.75q-0.625 -1.953125 -0.625 -3.78125q0 -2.25 0.765625 -4.265625q0.671875 -1.75 1.703125 -3.234375l1.5 0q-1.0625 2.375 -1.46875 4.03125q-0.40625 1.65625 -0.40625 3.515625q0 1.28125 0.234375 2.625q0.25 1.34375 0.65625 2.5625q0.28125 0.796875 0.96875 2.296875zm8.625 -5.421875l0 2.046875l-7.6875 0q0.125 -1.15625 0.75 -2.1875q0.625 -1.046875 2.46875 -2.75q1.484375 -1.390625 1.8125 -1.875q0.453125 -0.6875 0.453125 -1.34375q0 -0.734375 -0.390625 -1.125q-0.390625 -0.40625 -1.09375 -0.40625q-0.6875 0 -1.09375 0.421875q-0.40625 0.40625 -0.46875 1.375l-2.1875 -0.21875q0.203125 -1.8125 1.234375 -2.59375q1.03125 -0.796875 2.578125 -0.796875q1.6875 0 2.65625 0.921875q0.96875 0.90625 0.96875 2.265625q0 0.765625 -0.28125 1.46875q-0.265625 0.703125 -0.875 1.46875q-0.390625 0.5 -1.4375 1.453125q-1.03125 0.953125 -1.3125 1.265625q-0.28125 0.3125 -0.453125 0.609375l4.359375 0zm0.7734375 2.25l2.84375 -11.859375l1.65625 0l-2.875 11.859375l-1.625 0zm5.0859375 -3.25l2.125 -0.25q0.09375 0.8125 0.53125 1.25q0.453125 0.421875 1.09375 0.421875q0.671875 0 1.140625 -0.515625q0.46875 -0.515625 0.46875 -1.390625q0 -0.828125 -0.453125 -1.3125q-0.4375 -0.484375 -1.078125 -0.484375q-0.421875 0 -1.015625 0.15625l0.25 -1.78125q0.890625 0.015625 1.359375 -0.390625q0.46875 -0.40625 0.46875 -1.09375q0 -0.578125 -0.34375 -0.921875q-0.34375 -0.34375 -0.921875 -0.34375q-0.5625 0 -0.96875 0.390625q-0.390625 0.390625 -0.46875 1.140625l-2.03125 -0.34375q0.21875 -1.03125 0.640625 -1.65625q0.421875 -0.625 1.1875 -0.96875q0.765625 -0.359375 1.703125 -0.359375q1.625 0 2.59375 1.03125q0.8125 0.84375 0.8125 1.90625q0 1.5 -1.65625 2.40625q0.984375 0.203125 1.578125 0.9375q0.59375 0.734375 0.59375 1.78125q0 1.5 -1.109375 2.578125q-1.09375 1.0625 -2.734375 1.0625q-1.5625 0 -2.59375 -0.890625q-1.015625 -0.90625 -1.171875 -2.359375zm8.8359375 6.421875q0.640625 -1.390625 0.90625 -2.140625q0.265625 -0.734375 0.484375 -1.703125q0.234375 -0.984375 0.34375 -1.84375q0.109375 -0.875 0.109375 -1.796875q0 -1.859375 -0.40625 -3.515625q-0.390625 -1.65625 -1.453125 -4.03125l1.484375 0q1.1875 1.6875 1.828125 3.578125q0.65625 1.875 0.65625 3.8125q0 1.625 -0.515625 3.5q-0.578125 2.09375 -1.921875 4.140625l-1.515625 0zm5.921875 -0.140625l0 -14.6875l3.890625 0l0 1.71875l-1.796875 0l0 11.234375l1.796875 0l0 1.734375l-3.890625 0z" fill-rule="nonzero" /><path fill="#000000" d="m468.2456 56.987812l0 -14.6875l3.890625 0l0 1.71875l-1.796875 0l0 11.234375l1.796875 0l0 1.734375l-3.890625 0zm10.484375 -3.234375l-2.1875 0l0 -8.28125q-1.203125 1.125 -2.84375 1.671875l0 -2.0q0.859375 -0.28125 1.859375 -1.0625q1.015625 -0.78125 1.390625 -1.828125l1.78125 0l0 11.5zm4.5234375 -6.1875l-1.1875 -0.921875q0.5625 -0.625 1.171875 -1.203125q0.25 -0.234375 0.3125 -0.296875q-0.203125 -0.03125 -1.125 -0.265625q-0.65625 -0.15625 -0.875 -0.234375l0.46875 -1.375q1.015625 0.40625 1.828125 0.90625q-0.1875 -1.265625 -0.1875 -2.078125l1.390625 0q0 0.578125 -0.21875 2.09375q0.15625 -0.0625 0.671875 -0.296875q0.703125 -0.328125 1.296875 -0.546875l0.421875 1.40625q-0.875 0.203125 -2.015625 0.390625l0.9375 1.046875q0.28125 0.328125 0.453125 0.53125l-1.203125 0.78125l-1.046875 -1.734375q-0.484375 0.84375 -1.09375 1.796875zm13.0078125 6.1875l-2.203125 0l0 -4.234375q0 -1.34375 -0.140625 -1.734375q-0.140625 -0.40625 -0.453125 -0.625q-0.3125 -0.21875 -0.765625 -0.21875q-0.5625 0 -1.015625 0.3125q-0.453125 0.3125 -0.625 0.828125q-0.171875 0.515625 -0.171875 1.90625l0 3.765625l-2.1875 0l0 -8.296875l2.03125 0l0 1.21875q1.09375 -1.40625 2.734375 -1.40625q0.734375 0 1.328125 0.265625q0.609375 0.25 0.90625 0.65625q0.3125 0.40625 0.4375 0.921875q0.125 0.515625 0.125 1.484375l0 5.15625zm1.9765625 -5.40625l2.9375 -6.25l1.734375 0l2.859375 6.25l-2.21875 0l-1.546875 -3.828125l-1.53125 3.828125l-2.234375 0zm13.234375 8.78125l-1.515625 0q-1.1875 -1.8125 -1.8125 -3.75q-0.625 -1.953125 -0.625 -3.78125q0 -2.25 0.765625 -4.265625q0.671875 -1.75 1.703125 -3.234375l1.5 0q-1.0625 2.375 -1.46875 4.03125q-0.40625 1.65625 -0.40625 3.515625q0 1.28125 0.234375 2.625q0.25 1.34375 0.65625 2.5625q0.28125 0.796875 0.96875 2.296875zm8.625 -5.421875l0 2.046875l-7.6875 0q0.125 -1.15625 0.75 -2.1875q0.625 -1.046875 2.46875 -2.75q1.484375 -1.390625 1.8125 -1.875q0.453125 -0.6875 0.453125 -1.34375q0 -0.734375 -0.390625 -1.125q-0.390625 -0.40625 -1.09375 -0.40625q-0.6875 0 -1.09375 0.421875q-0.40625 0.40625 -0.46875 1.375l-2.1875 -0.21875q0.203125 -1.8125 1.234375 -2.59375q1.03125 -0.796875 2.578125 -0.796875q1.6875 0 2.65625 0.921875q0.96875 0.90625 0.96875 2.265625q0 0.765625 -0.28125 1.46875q-0.265625 0.703125 -0.875 1.46875q-0.390625 0.5 -1.4375 1.453125q-1.03125 0.953125 -1.3125 1.265625q-0.28125 0.3125 -0.453125 0.609375l4.359375 0zm0.7734375 2.25l2.84375 -11.859375l1.65625 0l-2.875 11.859375l-1.625 0zm5.0859375 -3.25l2.125 -0.25q0.09375 0.8125 0.53125 1.25q0.453125 0.421875 1.09375 0.421875q0.671875 0 1.140625 -0.515625q0.46875 -0.515625 0.46875 -1.390625q0 -0.828125 -0.453125 -1.3125q-0.4375 -0.484375 -1.078125 -0.484375q-0.421875 0 -1.015625 0.15625l0.25 -1.78125q0.890625 0.015625 1.359375 -0.390625q0.46875 -0.40625 0.46875 -1.09375q0 -0.578125 -0.34375 -0.921875q-0.34375 -0.34375 -0.921875 -0.34375q-0.5625 0 -0.96875 0.390625q-0.390625 0.390625 -0.46875 1.140625l-2.03125 -0.34375q0.21875 -1.03125 0.640625 -1.65625q0.421875 -0.625 1.1875 -0.96875q0.765625 -0.359375 1.703125 -0.359375q1.625 0 2.59375 1.03125q0.8125 0.84375 0.8125 1.90625q0 1.5 -1.65625 2.40625q0.984375 0.203125 1.578125 0.9375q0.59375 0.734375 0.59375 1.78125q0 1.5 -1.109375 2.578125q-1.09375 1.0625 -2.734375 1.0625q-1.5625 0 -2.59375 -0.890625q-1.015625 -0.90625 -1.171875 -2.359375zm8.8359375 6.421875q0.640625 -1.390625 0.90625 -2.140625q0.265625 -0.734375 0.484375 -1.703125q0.234375 -0.984375 0.34375 -1.84375q0.109375 -0.875 0.109375 -1.796875q0 -1.859375 -0.40625 -3.515625q-0.390625 -1.65625 -1.453125 -4.03125l1.484375 0q1.1875 1.6875 1.828125 3.578125q0.65625 1.875 0.65625 3.8125q0 1.625 -0.515625 3.5q-0.578125 2.09375 -1.921875 4.140625l-1.515625 0zm5.875 -5.578125l2.203125 0l0 1.578125q0 0.953125 -0.171875 1.5q-0.15625 0.5625 -0.625 1.0q-0.453125 0.4375 -1.15625 0.6875l-0.421875 -0.90625q0.65625 -0.21875 0.9375 -0.609375q0.28125 -0.375 0.296875 -1.046875l-1.0625 0l0 -2.203125zm11.4453125 0.15625l0 2.046875l-7.6875 0q0.125 -1.15625 0.75 -2.1875q0.625 -1.046875 2.46875 -2.75q1.484375 -1.390625 1.8125 -1.875q0.453125 -0.6875 0.453125 -1.34375q0 -0.734375 -0.390625 -1.125q-0.390625 -0.40625 -1.09375 -0.40625q-0.6875 0 -1.09375 0.421875q-0.40625 0.40625 -0.46875 1.375l-2.1875 -0.21875q0.203125 -1.8125 1.234375 -2.59375q1.03125 -0.796875 2.578125 -0.796875q1.6875 0 2.65625 0.921875q0.96875 0.90625 0.96875 2.265625q0 0.765625 -0.28125 1.46875q-0.265625 0.703125 -0.875 1.46875q-0.390625 0.5 -1.4375 1.453125q-1.03125 0.953125 -1.3125 1.265625q-0.28125 0.3125 -0.453125 0.609375l4.359375 0zm2.7265625 -4.140625l-1.1875 -0.921875q0.5625 -0.625 1.171875 -1.203125q0.25 -0.234375 0.3125 -0.296875q-0.203125 -0.03125 -1.125 -0.265625q-0.65625 -0.15625 -0.875 -0.234375l0.46875 -1.375q1.015625 0.40625 1.828125 0.90625q-0.1875 -1.265625 -0.1875 -2.078125l1.390625 0q0 0.578125 -0.21875 2.09375q0.15625 -0.0625 0.671875 -0.296875q0.703125 -0.328125 1.296875 -0.546875l0.421875 1.40625q-0.875 0.203125 -2.015625 0.390625l0.9375 1.046875q0.28125 0.328125 0.453125 0.53125l-1.203125 0.78125l-1.046875 -1.734375q-0.484375 0.84375 -1.09375 1.796875zm13.0078125 6.1875l-2.203125 0l0 -4.234375q0 -1.34375 -0.140625 -1.734375q-0.140625 -0.40625 -0.453125 -0.625q-0.3125 -0.21875 -0.765625 -0.21875q-0.5625 0 -1.015625 0.3125q-0.453125 0.3125 -0.625 0.828125q-0.171875 0.515625 -0.171875 1.90625l0 3.765625l-2.1875 0l0 -8.296875l2.03125 0l0 1.21875q1.09375 -1.40625 2.734375 -1.40625q0.734375 0 1.328125 0.265625q0.609375 0.25 0.90625 0.65625q0.3125 0.40625 0.4375 0.921875q0.125 0.515625 0.125 1.484375l0 5.15625zm1.9765625 -5.40625l2.9375 -6.25l1.734375 0l2.859375 6.25l-2.21875 0l-1.546875 -3.828125l-1.53125 3.828125l-2.234375 0zm13.234375 8.78125l-1.515625 0q-1.1875 -1.8125 -1.8125 -3.75q-0.625 -1.953125 -0.625 -3.78125q0 -2.25 0.765625 -4.265625q0.671875 -1.75 1.703125 -3.234375l1.5 0q-1.0625 2.375 -1.46875 4.03125q-0.40625 1.65625 -0.40625 3.515625q0 1.28125 0.234375 2.625q0.25 1.34375 0.65625 2.5625q0.28125 0.796875 0.96875 2.296875zm8.625 -5.421875l0 2.046875l-7.6875 0q0.125 -1.15625 0.75 -2.1875q0.625 -1.046875 2.46875 -2.75q1.484375 -1.390625 1.8125 -1.875q0.453125 -0.6875 0.453125 -1.34375q0 -0.734375 -0.390625 -1.125q-0.390625 -0.40625 -1.09375 -0.40625q-0.6875 0 -1.09375 0.421875q-0.40625 0.40625 -0.46875 1.375l-2.1875 -0.21875q0.203125 -1.8125 1.234375 -2.59375q1.03125 -0.796875 2.578125 -0.796875q1.6875 0 2.65625 0.921875q0.96875 0.90625 0.96875 2.265625q0 0.765625 -0.28125 1.46875q-0.265625 0.703125 -0.875 1.46875q-0.390625 0.5 -1.4375 1.453125q-1.03125 0.953125 -1.3125 1.265625q-0.28125 0.3125 -0.453125 0.609375l4.359375 0zm0.7734375 2.25l2.84375 -11.859375l1.65625 0l-2.875 11.859375l-1.625 0zm5.0859375 -3.25l2.125 -0.25q0.09375 0.8125 0.53125 1.25q0.453125 0.421875 1.09375 0.421875q0.671875 0 1.140625 -0.515625q0.46875 -0.515625 0.46875 -1.390625q0 -0.828125 -0.453125 -1.3125q-0.4375 -0.484375 -1.078125 -0.484375q-0.421875 0 -1.015625 0.15625l0.25 -1.78125q0.890625 0.015625 1.359375 -0.390625q0.46875 -0.40625 0.46875 -1.09375q0 -0.578125 -0.34375 -0.921875q-0.34375 -0.34375 -0.921875 -0.34375q-0.5625 0 -0.96875 0.390625q-0.390625 0.390625 -0.46875 1.140625l-2.03125 -0.34375q0.21875 -1.03125 0.640625 -1.65625q0.421875 -0.625 1.1875 -0.96875q0.765625 -0.359375 1.703125 -0.359375q1.625 0 2.59375 1.03125q0.8125 0.84375 0.8125 1.90625q0 1.5 -1.65625 2.40625q0.984375 0.203125 1.578125 0.9375q0.59375 0.734375 0.59375 1.78125q0 1.5 -1.109375 2.578125q-1.09375 1.0625 -2.734375 1.0625q-1.5625 0 -2.59375 -0.890625q-1.015625 -0.90625 -1.171875 -2.359375zm8.8359375 6.421875q0.640625 -1.390625 0.90625 -2.140625q0.265625 -0.734375 0.484375 -1.703125q0.234375 -0.984375 0.34375 -1.84375q0.109375 -0.875 0.109375 -1.796875q0 -1.859375 -0.40625 -3.515625q-0.390625 -1.65625 -1.453125 -4.03125l1.484375 0q1.1875 1.6875 1.828125 3.578125q0.65625 1.875 0.65625 3.8125q0 1.625 -0.515625 3.5q-0.578125 2.09375 -1.921875 4.140625l-1.515625 0zm5.921875 -0.140625l0 -14.6875l3.890625 0l0 1.71875l-1.796875 0l0 11.234375l1.796875 0l0 1.734375l-3.890625 0z" fill-rule="nonzero" /><path stroke="#000000" stroke-width="3.0" stroke-linecap="butt" d="m117.38058 119.52362l0 46.196854" fill-rule="nonzero" /><path stroke="#000000" stroke-width="3.0" stroke-linecap="butt" d="m288.25986 119.52362l0 46.196854" fill-rule="nonzero" /><path stroke="#ff0000" stroke-width="3.0" stroke-linecap="butt" d="m459.1391 119.52362l0 46.196854" fill-rule="nonzero" /><path stroke="#000000" stroke-width="3.0" stroke-linecap="butt" d="m630.0184 119.52362l0 46.196854" fill-rule="nonzero" /><path stroke="#000000" stroke-width="3.0" stroke-linecap="butt" d="m800.89764 119.52362l0 46.196854" fill-rule="nonzero" /><path stroke="#000000" stroke-width="3.0" stroke-linecap="butt" d="m115.88189 121.02231l686.5144 0" fill-rule="nonzero" /><path stroke="#000000" stroke-width="3.0" stroke-linecap="butt" d="m115.88189 164.22179l686.5144 0" fill-rule="nonzero" /><path fill="#000000" d="m127.5212 151.61642l0 -14.6875l3.8906326 0l0 1.71875l-1.796875 0l0 11.234375l1.796875 0l0 1.734375l-3.8906326 0zm8.578133 -14.734375q1.671875 0 2.609375 1.1875q1.109375 1.40625 1.109375 4.65625q0 3.25 -1.125 4.671875q-0.921875 1.1875 -2.59375 1.1875q-1.671875 0 -2.703125 -1.28125q-1.015625 -1.296875 -1.015625 -4.59375q0 -3.234375 1.125 -4.65625q0.9375 -1.171875 2.59375 -1.171875zm0 1.8125q-0.390625 0 -0.703125 0.265625q-0.3125 0.25 -0.484375 0.90625q-0.234375 0.84375 -0.234375 2.859375q0 2.015625 0.203125 2.78125q0.203125 0.75 0.515625 1.0q0.3125 0.25 0.703125 0.25q0.40625 0 0.71875 -0.25q0.3125 -0.265625 0.484375 -0.921875q0.21875 -0.84375 0.21875 -2.859375q0 -2.015625 -0.203125 -2.765625q-0.203125 -0.75 -0.515625 -1.0q-0.296875 -0.265625 -0.703125 -0.265625zm6.4296875 3.5l-1.1875 -0.921875q0.5625 -0.625 1.171875 -1.203125q0.25 -0.234375 0.3125 -0.296875q-0.203125 -0.03125 -1.125 -0.265625q-0.65625 -0.15625 -0.875 -0.234375l0.46875 -1.375q1.015625 0.40625 1.828125 0.90625q-0.1875 -1.265625 -0.1875 -2.078125l1.390625 0q0 0.578125 -0.21875 2.09375q0.15625 -0.0625 0.671875 -0.296875q0.703125 -0.328125 1.296875 -0.546875l0.421875 1.40625q-0.875 0.203125 -2.015625 0.390625l0.9375 1.046875q0.28125 0.328125 0.453125 0.53125l-1.203125 0.78125l-1.046875 -1.734375q-0.484375 0.84375 -1.09375 1.796875zm13.0078125 6.1875l-2.203125 0l0 -4.234375q0 -1.34375 -0.140625 -1.734375q-0.140625 -0.40625 -0.453125 -0.625q-0.3125 -0.21875 -0.765625 -0.21875q-0.5625 0 -1.015625 0.3125q-0.453125 0.3125 -0.625 0.828125q-0.171875 0.515625 -0.171875 1.90625l0 3.765625l-2.1875 0l0 -8.296875l2.03125 0l0 1.21875q1.09375 -1.40625 2.734375 -1.40625q0.734375 0 1.328125 0.265625q0.609375 0.25 0.90625 0.65625q0.3125 0.40625 0.4375 0.921875q0.125 0.515625 0.125 1.484375l0 5.15625zm1.9765625 -5.40625l2.9375 -6.25l1.734375 0l2.859375 6.25l-2.21875 0l-1.546875 -3.828125l-1.53125 3.828125l-2.234375 0zm13.234375 8.78125l-1.515625 0q-1.1875 -1.8125 -1.8125 -3.75q-0.625 -1.953125 -0.625 -3.78125q0 -2.25 0.765625 -4.265625q0.671875 -1.75 1.703125 -3.234375l1.5 0q-1.0625 2.375 -1.46875 4.03125q-0.40625 1.65625 -0.40625 3.515625q0 1.28125 0.234375 2.625q0.25 1.34375 0.65625 2.5625q0.28125 0.796875 0.96875 2.296875zm6.828125 -3.375l-2.1875 0l0 -8.28125q-1.203125 1.125 -2.84375 1.671875l0 -2.0q0.859375 -0.28125 1.859375 -1.0625q1.015625 -0.78125 1.390625 -1.828125l1.78125 0l0 11.5zm2.5703125 0.203125l2.84375 -11.859375l1.65625 0l-2.875 11.859375l-1.625 0zm5.0859375 -3.25l2.125 -0.25q0.09375 0.8125 0.53125 1.25q0.453125 0.421875 1.09375 0.421875q0.671875 0 1.140625 -0.515625q0.46875 -0.515625 0.46875 -1.390625q0 -0.828125 -0.453125 -1.3125q-0.4375 -0.484375 -1.078125 -0.484375q-0.421875 0 -1.015625 0.15625l0.25 -1.78125q0.890625 0.015625 1.359375 -0.390625q0.46875 -0.40625 0.46875 -1.09375q0 -0.578125 -0.34375 -0.921875q-0.34375 -0.34375 -0.921875 -0.34375q-0.5625 0 -0.96875 0.390625q-0.390625 0.390625 -0.46875 1.140625l-2.03125 -0.34375q0.21875 -1.03125 0.640625 -1.65625q0.421875 -0.625 1.1875 -0.96875q0.765625 -0.359375 1.703125 -0.359375q1.625 0 2.59375 1.03125q0.8125 0.84375 0.8125 1.90625q0 1.5 -1.65625 2.40625q0.984375 0.203125 1.578125 0.9375q0.59375 0.734375 0.59375 1.78125q0 1.5 -1.109375 2.578125q-1.09375 1.0625 -2.734375 1.0625q-1.5625 0 -2.59375 -0.890625q-1.015625 -0.90625 -1.171875 -2.359375zm8.8359375 6.421875q0.640625 -1.390625 0.90625 -2.140625q0.265625 -0.734375 0.484375 -1.703125q0.234375 -0.984375 0.34375 -1.84375q0.109375 -0.875 0.109375 -1.796875q0 -1.859375 -0.40625 -3.515625q-0.390625 -1.65625 -1.453125 -4.03125l1.484375 0q1.1875 1.6875 1.828125 3.578125q0.65625 1.875 0.65625 3.8125q0 1.625 -0.515625 3.5q-0.578125 2.09375 -1.921875 4.140625l-1.515625 0zm5.875 -5.578125l2.203125 0l0 1.578125q0 0.953125 -0.171875 1.5q-0.15625 0.5625 -0.625 1.0q-0.453125 0.4375 -1.15625 0.6875l-0.421875 -0.90625q0.65625 -0.21875 0.9375 -0.609375q0.28125 -0.375 0.296875 -1.046875l-1.0625 0l0 -2.203125zm9.6484375 2.203125l-2.1875 0l0 -8.28125q-1.203125 1.125 -2.84375 1.671875l0 -2.0q0.859375 -0.28125 1.859375 -1.0625q1.015625 -0.78125 1.390625 -1.828125l1.78125 0l0 11.5zm4.5234375 -6.1875l-1.1875 -0.921875q0.5625 -0.625 1.171875 -1.203125q0.25 -0.234375 0.3125 -0.296875q-0.203125 -0.03125 -1.125 -0.265625q-0.65625 -0.15625 -0.875 -0.234375l0.46875 -1.375q1.015625 0.40625 1.828125 0.90625q-0.1875 -1.265625 -0.1875 -2.078125l1.390625 0q0 0.578125 -0.21875 2.09375q0.15625 -0.0625 0.671875 -0.296875q0.703125 -0.328125 1.296875 -0.546875l0.421875 1.40625q-0.875 0.203125 -2.015625 0.390625l0.9375 1.046875q0.28125 0.328125 0.453125 0.53125l-1.203125 0.78125l-1.046875 -1.734375q-0.484375 0.84375 -1.09375 1.796875zm13.0078125 6.1875l-2.203125 0l0 -4.234375q0 -1.34375 -0.140625 -1.734375q-0.140625 -0.40625 -0.453125 -0.625q-0.3125 -0.21875 -0.765625 -0.21875q-0.5625 0 -1.015625 0.3125q-0.453125 0.3125 -0.625 0.828125q-0.171875 0.515625 -0.171875 1.90625l0 3.765625l-2.1875 0l0 -8.296875l2.03125 0l0 1.21875q1.09375 -1.40625 2.734375 -1.40625q0.734375 0 1.328125 0.265625q0.609375 0.25 0.90625 0.65625q0.3125 0.40625 0.4375 0.921875q0.125 0.515625 0.125 1.484375l0 5.15625zm1.9765625 -5.40625l2.9375 -6.25l1.734375 0l2.859375 6.25l-2.21875 0l-1.546875 -3.828125l-1.53125 3.828125l-2.234375 0zm13.234375 8.78125l-1.515625 0q-1.1875 -1.8125 -1.8125 -3.75q-0.625 -1.953125 -0.625 -3.78125q0 -2.25 0.765625 -4.265625q0.671875 -1.75 1.703125 -3.234375l1.5 0q-1.0625 2.375 -1.46875 4.03125q-0.40625 1.65625 -0.40625 3.515625q0 1.28125 0.234375 2.625q0.25 1.34375 0.65625 2.5625q0.28125 0.796875 0.96875 2.296875zm6.828125 -3.375l-2.1875 0l0 -8.28125q-1.203125 1.125 -2.84375 1.671875l0 -2.0q0.859375 -0.28125 1.859375 -1.0625q1.015625 -0.78125 1.390625 -1.828125l1.78125 0l0 11.5zm2.5703125 0.203125l2.84375 -11.859375l1.65625 0l-2.875 11.859375l-1.625 0zm5.0859375 -3.25l2.125 -0.25q0.09375 0.8125 0.53125 1.25q0.453125 0.421875 1.09375 0.421875q0.671875 0 1.140625 -0.515625q0.46875 -0.515625 0.46875 -1.390625q0 -0.828125 -0.453125 -1.3125q-0.4375 -0.484375 -1.078125 -0.484375q-0.421875 0 -1.015625 0.15625l0.25 -1.78125q0.890625 0.015625 1.359375 -0.390625q0.46875 -0.40625 0.46875 -1.09375q0 -0.578125 -0.34375 -0.921875q-0.34375 -0.34375 -0.921875 -0.34375q-0.5625 0 -0.96875 0.390625q-0.390625 0.390625 -0.46875 1.140625l-2.03125 -0.34375q0.21875 -1.03125 0.640625 -1.65625q0.421875 -0.625 1.1875 -0.96875q0.765625 -0.359375 1.703125 -0.359375q1.625 0 2.59375 1.03125q0.8125 0.84375 0.8125 1.90625q0 1.5 -1.65625 2.40625q0.984375 0.203125 1.578125 0.9375q0.59375 0.734375 0.59375 1.78125q0 1.5 -1.109375 2.578125q-1.09375 1.0625 -2.734375 1.0625q-1.5625 0 -2.59375 -0.890625q-1.015625 -0.90625 -1.171875 -2.359375zm8.8359375 6.421875q0.640625 -1.390625 0.90625 -2.140625q0.265625 -0.734375 0.484375 -1.703125q0.234375 -0.984375 0.34375 -1.84375q0.109375 -0.875 0.109375 -1.796875q0 -1.859375 -0.40625 -3.515625q-0.390625 -1.65625 -1.453125 -4.03125l1.484375 0q1.1875 1.6875 1.828125 3.578125q0.65625 1.875 0.65625 3.8125q0 1.625 -0.515625 3.5q-0.578125 2.09375 -1.921875 4.140625l-1.515625 0zm5.921875 -0.140625l0 -14.6875l3.890625 0l0 1.71875l-1.796875 0l0 11.234375l1.796875 0l0 1.734375l-3.890625 0z" fill-rule="nonzero" /><path fill="#000000" d="m298.40048 151.61642l0 -14.6875l3.890625 0l0 1.71875l-1.796875 0l0 11.234375l1.796875 0l0 1.734375l-3.890625 0zm10.484375 -3.234375l-2.1875 0l0 -8.28125q-1.203125 1.125 -2.84375 1.671875l0 -2.0q0.859375 -0.28125 1.859375 -1.0625q1.015625 -0.78125 1.390625 -1.828125l1.78125 0l0 11.5zm4.5234375 -6.1875l-1.1875 -0.921875q0.5625 -0.625 1.171875 -1.203125q0.25 -0.234375 0.3125 -0.296875q-0.203125 -0.03125 -1.125 -0.265625q-0.65625 -0.15625 -0.875 -0.234375l0.46875 -1.375q1.015625 0.40625 1.828125 0.90625q-0.1875 -1.265625 -0.1875 -2.078125l1.390625 0q0 0.578125 -0.21875 2.09375q0.15625 -0.0625 0.671875 -0.296875q0.703125 -0.328125 1.296875 -0.546875l0.421875 1.40625q-0.875 0.203125 -2.015625 0.390625l0.9375 1.046875q0.28125 0.328125 0.453125 0.53125l-1.203125 0.78125l-1.046875 -1.734375q-0.484375 0.84375 -1.09375 1.796875zm13.0078125 6.1875l-2.203125 0l0 -4.234375q0 -1.34375 -0.140625 -1.734375q-0.140625 -0.40625 -0.453125 -0.625q-0.3125 -0.21875 -0.765625 -0.21875q-0.5625 0 -1.015625 0.3125q-0.453125 0.3125 -0.625 0.828125q-0.171875 0.515625 -0.171875 1.90625l0 3.765625l-2.1875 0l0 -8.296875l2.03125 0l0 1.21875q1.09375 -1.40625 2.734375 -1.40625q0.734375 0 1.328125 0.265625q0.609375 0.25 0.90625 0.65625q0.3125 0.40625 0.4375 0.921875q0.125 0.515625 0.125 1.484375l0 5.15625zm1.9765625 -5.40625l2.9375 -6.25l1.734375 0l2.859375 6.25l-2.21875 0l-1.546875 -3.828125l-1.53125 3.828125l-2.234375 0zm13.234375 8.78125l-1.515625 0q-1.1875 -1.8125 -1.8125 -3.75q-0.625 -1.953125 -0.625 -3.78125q0 -2.25 0.765625 -4.265625q0.671875 -1.75 1.703125 -3.234375l1.5 0q-1.0625 2.375 -1.46875 4.03125q-0.40625 1.65625 -0.40625 3.515625q0 1.28125 0.234375 2.625q0.25 1.34375 0.65625 2.5625q0.28125 0.796875 0.96875 2.296875zm6.828125 -3.375l-2.1875 0l0 -8.28125q-1.203125 1.125 -2.84375 1.671875l0 -2.0q0.859375 -0.28125 1.859375 -1.0625q1.015625 -0.78125 1.390625 -1.828125l1.78125 0l0 11.5zm2.5703125 0.203125l2.84375 -11.859375l1.65625 0l-2.875 11.859375l-1.625 0zm5.0859375 -3.25l2.125 -0.25q0.09375 0.8125 0.53125 1.25q0.453125 0.421875 1.09375 0.421875q0.671875 0 1.140625 -0.515625q0.46875 -0.515625 0.46875 -1.390625q0 -0.828125 -0.453125 -1.3125q-0.4375 -0.484375 -1.078125 -0.484375q-0.421875 0 -1.015625 0.15625l0.25 -1.78125q0.890625 0.015625 1.359375 -0.390625q0.46875 -0.40625 0.46875 -1.09375q0 -0.578125 -0.34375 -0.921875q-0.34375 -0.34375 -0.921875 -0.34375q-0.5625 0 -0.96875 0.390625q-0.390625 0.390625 -0.46875 1.140625l-2.03125 -0.34375q0.21875 -1.03125 0.640625 -1.65625q0.421875 -0.625 1.1875 -0.96875q0.765625 -0.359375 1.703125 -0.359375q1.625 0 2.59375 1.03125q0.8125 0.84375 0.8125 1.90625q0 1.5 -1.65625 2.40625q0.984375 0.203125 1.578125 0.9375q0.59375 0.734375 0.59375 1.78125q0 1.5 -1.109375 2.578125q-1.09375 1.0625 -2.734375 1.0625q-1.5625 0 -2.59375 -0.890625q-1.015625 -0.90625 -1.171875 -2.359375zm8.8359375 6.421875q0.640625 -1.390625 0.90625 -2.140625q0.265625 -0.734375 0.484375 -1.703125q0.234375 -0.984375 0.34375 -1.84375q0.109375 -0.875 0.109375 -1.796875q0 -1.859375 -0.40625 -3.515625q-0.390625 -1.65625 -1.453125 -4.03125l1.484375 0q1.1875 1.6875 1.828125 3.578125q0.65625 1.875 0.65625 3.8125q0 1.625 -0.515625 3.5q-0.578125 2.09375 -1.921875 4.140625l-1.515625 0zm5.875 -5.578125l2.203125 0l0 1.578125q0 0.953125 -0.171875 1.5q-0.15625 0.5625 -0.625 1.0q-0.453125 0.4375 -1.15625 0.6875l-0.421875 -0.90625q0.65625 -0.21875 0.9375 -0.609375q0.28125 -0.375 0.296875 -1.046875l-1.0625 0l0 -2.203125zm11.4453125 0.15625l0 2.046875l-7.6875 0q0.125 -1.15625 0.75 -2.1875q0.625 -1.046875 2.46875 -2.75q1.484375 -1.390625 1.8125 -1.875q0.453125 -0.6875 0.453125 -1.34375q0 -0.734375 -0.390625 -1.125q-0.390625 -0.40625 -1.09375 -0.40625q-0.6875 0 -1.09375 0.421875q-0.40625 0.40625 -0.46875 1.375l-2.1875 -0.21875q0.203125 -1.8125 1.234375 -2.59375q1.03125 -0.796875 2.578125 -0.796875q1.6875 0 2.65625 0.921875q0.96875 0.90625 0.96875 2.265625q0 0.765625 -0.28125 1.46875q-0.265625 0.703125 -0.875 1.46875q-0.390625 0.5 -1.4375 1.453125q-1.03125 0.953125 -1.3125 1.265625q-0.28125 0.3125 -0.453125 0.609375l4.359375 0zm2.7265625 -4.140625l-1.1875 -0.921875q0.5625 -0.625 1.171875 -1.203125q0.25 -0.234375 0.3125 -0.296875q-0.203125 -0.03125 -1.125 -0.265625q-0.65625 -0.15625 -0.875 -0.234375l0.46875 -1.375q1.015625 0.40625 1.828125 0.90625q-0.1875 -1.265625 -0.1875 -2.078125l1.390625 0q0 0.578125 -0.21875 2.09375q0.15625 -0.0625 0.671875 -0.296875q0.703125 -0.328125 1.296875 -0.546875l0.421875 1.40625q-0.875 0.203125 -2.015625 0.390625l0.9375 1.046875q0.28125 0.328125 0.453125 0.53125l-1.203125 0.78125l-1.046875 -1.734375q-0.484375 0.84375 -1.09375 1.796875zm13.0078125 6.1875l-2.203125 0l0 -4.234375q0 -1.34375 -0.140625 -1.734375q-0.140625 -0.40625 -0.453125 -0.625q-0.3125 -0.21875 -0.765625 -0.21875q-0.5625 0 -1.015625 0.3125q-0.453125 0.3125 -0.625 0.828125q-0.171875 0.515625 -0.171875 1.90625l0 3.765625l-2.1875 0l0 -8.296875l2.03125 0l0 1.21875q1.09375 -1.40625 2.734375 -1.40625q0.734375 0 1.328125 0.265625q0.609375 0.25 0.90625 0.65625q0.3125 0.40625 0.4375 0.921875q0.125 0.515625 0.125 1.484375l0 5.15625zm1.9765625 -5.40625l2.9375 -6.25l1.734375 0l2.859375 6.25l-2.21875 0l-1.546875 -3.828125l-1.53125 3.828125l-2.234375 0zm13.234375 8.78125l-1.515625 0q-1.1875 -1.8125 -1.8125 -3.75q-0.625 -1.953125 -0.625 -3.78125q0 -2.25 0.765625 -4.265625q0.671875 -1.75 1.703125 -3.234375l1.5 0q-1.0625 2.375 -1.46875 4.03125q-0.40625 1.65625 -0.40625 3.515625q0 1.28125 0.234375 2.625q0.25 1.34375 0.65625 2.5625q0.28125 0.796875 0.96875 2.296875zm6.828125 -3.375l-2.1875 0l0 -8.28125q-1.203125 1.125 -2.84375 1.671875l0 -2.0q0.859375 -0.28125 1.859375 -1.0625q1.015625 -0.78125 1.390625 -1.828125l1.78125 0l0 11.5zm2.5703125 0.203125l2.84375 -11.859375l1.65625 0l-2.875 11.859375l-1.625 0zm5.0859375 -3.25l2.125 -0.25q0.09375 0.8125 0.53125 1.25q0.453125 0.421875 1.09375 0.421875q0.671875 0 1.140625 -0.515625q0.46875 -0.515625 0.46875 -1.390625q0 -0.828125 -0.453125 -1.3125q-0.4375 -0.484375 -1.078125 -0.484375q-0.421875 0 -1.015625 0.15625l0.25 -1.78125q0.890625 0.015625 1.359375 -0.390625q0.46875 -0.40625 0.46875 -1.09375q0 -0.578125 -0.34375 -0.921875q-0.34375 -0.34375 -0.921875 -0.34375q-0.5625 0 -0.96875 0.390625q-0.390625 0.390625 -0.46875 1.140625l-2.03125 -0.34375q0.21875 -1.03125 0.640625 -1.65625q0.421875 -0.625 1.1875 -0.96875q0.765625 -0.359375 1.703125 -0.359375q1.625 0 2.59375 1.03125q0.8125 0.84375 0.8125 1.90625q0 1.5 -1.65625 2.40625q0.984375 0.203125 1.578125 0.9375q0.59375 0.734375 0.59375 1.78125q0 1.5 -1.109375 2.578125q-1.09375 1.0625 -2.734375 1.0625q-1.5625 0 -2.59375 -0.890625q-1.015625 -0.90625 -1.171875 -2.359375zm8.8359375 6.421875q0.640625 -1.390625 0.90625 -2.140625q0.265625 -0.734375 0.484375 -1.703125q0.234375 -0.984375 0.34375 -1.84375q0.109375 -0.875 0.109375 -1.796875q0 -1.859375 -0.40625 -3.515625q-0.390625 -1.65625 -1.453125 -4.03125l1.484375 0q1.1875 1.6875 1.828125 3.578125q0.65625 1.875 0.65625 3.8125q0 1.625 -0.515625 3.5q-0.578125 2.09375 -1.921875 4.140625l-1.515625 0zm5.921875 -0.140625l0 -14.6875l3.890625 0l0 1.71875l-1.796875 0l0 11.234375l1.796875 0l0 1.734375l-3.890625 0z" fill-rule="nonzero" /><path fill="#000000" d="m469.27972 151.61642l0 -14.6875l3.890625 0l0 1.71875l-1.796875 0l0 11.234375l1.796875 0l0 1.734375l-3.890625 0zm12.28125 -5.28125l0 2.046875l-7.6875 0q0.125 -1.15625 0.75 -2.1875q0.625 -1.046875 2.46875 -2.75q1.484375 -1.390625 1.8125 -1.875q0.453125 -0.6875 0.453125 -1.34375q0 -0.734375 -0.390625 -1.125q-0.390625 -0.40625 -1.09375 -0.40625q-0.6875 0 -1.09375 0.421875q-0.40625 0.40625 -0.46875 1.375l-2.1875 -0.21875q0.203125 -1.8125 1.234375 -2.59375q1.03125 -0.796875 2.578125 -0.796875q1.6875 0 2.65625 0.921875q0.96875 0.90625 0.96875 2.265625q0 0.765625 -0.28125 1.46875q-0.265625 0.703125 -0.875 1.46875q-0.390625 0.5 -1.4375 1.453125q-1.03125 0.953125 -1.3125 1.265625q-0.28125 0.3125 -0.453125 0.609375l4.359375 0zm2.7265625 -4.140625l-1.1875 -0.921875q0.5625 -0.625 1.171875 -1.203125q0.25 -0.234375 0.3125 -0.296875q-0.203125 -0.03125 -1.125 -0.265625q-0.65625 -0.15625 -0.875 -0.234375l0.46875 -1.375q1.015625 0.40625 1.828125 0.90625q-0.1875 -1.265625 -0.1875 -2.078125l1.390625 0q0 0.578125 -0.21875 2.09375q0.15625 -0.0625 0.671875 -0.296875q0.703125 -0.328125 1.296875 -0.546875l0.421875 1.40625q-0.875 0.203125 -2.015625 0.390625l0.9375 1.046875q0.28125 0.328125 0.453125 0.53125l-1.203125 0.78125l-1.046875 -1.734375q-0.484375 0.84375 -1.09375 1.796875zm13.0078125 6.1875l-2.203125 0l0 -4.234375q0 -1.34375 -0.140625 -1.734375q-0.140625 -0.40625 -0.453125 -0.625q-0.3125 -0.21875 -0.765625 -0.21875q-0.5625 0 -1.015625 0.3125q-0.453125 0.3125 -0.625 0.828125q-0.171875 0.515625 -0.171875 1.90625l0 3.765625l-2.1875 0l0 -8.296875l2.03125 0l0 1.21875q1.09375 -1.40625 2.734375 -1.40625q0.734375 0 1.328125 0.265625q0.609375 0.25 0.90625 0.65625q0.3125 0.40625 0.4375 0.921875q0.125 0.515625 0.125 1.484375l0 5.15625zm1.9765625 -5.40625l2.9375 -6.25l1.734375 0l2.859375 6.25l-2.21875 0l-1.546875 -3.828125l-1.53125 3.828125l-2.234375 0zm13.234375 8.78125l-1.515625 0q-1.1875 -1.8125 -1.8125 -3.75q-0.625 -1.953125 -0.625 -3.78125q0 -2.25 0.765625 -4.265625q0.671875 -1.75 1.703125 -3.234375l1.5 0q-1.0625 2.375 -1.46875 4.03125q-0.40625 1.65625 -0.40625 3.515625q0 1.28125 0.234375 2.625q0.25 1.34375 0.65625 2.5625q0.28125 0.796875 0.96875 2.296875zm6.828125 -3.375l-2.1875 0l0 -8.28125q-1.203125 1.125 -2.84375 1.671875l0 -2.0q0.859375 -0.28125 1.859375 -1.0625q1.015625 -0.78125 1.390625 -1.828125l1.78125 0l0 11.5zm2.5703125 0.203125l2.84375 -11.859375l1.65625 0l-2.875 11.859375l-1.625 0zm5.0859375 -3.25l2.125 -0.25q0.09375 0.8125 0.53125 1.25q0.453125 0.421875 1.09375 0.421875q0.671875 0 1.140625 -0.515625q0.46875 -0.515625 0.46875 -1.390625q0 -0.828125 -0.453125 -1.3125q-0.4375 -0.484375 -1.078125 -0.484375q-0.421875 0 -1.015625 0.15625l0.25 -1.78125q0.890625 0.015625 1.359375 -0.390625q0.46875 -0.40625 0.46875 -1.09375q0 -0.578125 -0.34375 -0.921875q-0.34375 -0.34375 -0.921875 -0.34375q-0.5625 0 -0.96875 0.390625q-0.390625 0.390625 -0.46875 1.140625l-2.03125 -0.34375q0.21875 -1.03125 0.640625 -1.65625q0.421875 -0.625 1.1875 -0.96875q0.765625 -0.359375 1.703125 -0.359375q1.625 0 2.59375 1.03125q0.8125 0.84375 0.8125 1.90625q0 1.5 -1.65625 2.40625q0.984375 0.203125 1.578125 0.9375q0.59375 0.734375 0.59375 1.78125q0 1.5 -1.109375 2.578125q-1.09375 1.0625 -2.734375 1.0625q-1.5625 0 -2.59375 -0.890625q-1.015625 -0.90625 -1.171875 -2.359375zm8.8359375 6.421875q0.640625 -1.390625 0.90625 -2.140625q0.265625 -0.734375 0.484375 -1.703125q0.234375 -0.984375 0.34375 -1.84375q0.109375 -0.875 0.109375 -1.796875q0 -1.859375 -0.40625 -3.515625q-0.390625 -1.65625 -1.453125 -4.03125l1.484375 0q1.1875 1.6875 1.828125 3.578125q0.65625 1.875 0.65625 3.8125q0 1.625 -0.515625 3.5q-0.578125 2.09375 -1.921875 4.140625l-1.515625 0zm5.875 -5.578125l2.203125 0l0 1.578125q0 0.953125 -0.171875 1.5q-0.15625 0.5625 -0.625 1.0q-0.453125 0.4375 -1.15625 0.6875l-0.421875 -0.90625q0.65625 -0.21875 0.9375 -0.609375q0.28125 -0.375 0.296875 -1.046875l-1.0625 0l0 -2.203125zm3.9609375 -0.84375l2.125 -0.25q0.09375 0.8125 0.53125 1.25q0.453125 0.421875 1.09375 0.421875q0.671875 0 1.140625 -0.515625q0.46875 -0.515625 0.46875 -1.390625q0 -0.828125 -0.453125 -1.3125q-0.4375 -0.484375 -1.078125 -0.484375q-0.421875 0 -1.015625 0.15625l0.25 -1.78125q0.890625 0.015625 1.359375 -0.390625q0.46875 -0.40625 0.46875 -1.09375q0 -0.578125 -0.34375 -0.921875q-0.34375 -0.34375 -0.921875 -0.34375q-0.5625 0 -0.96875 0.390625q-0.390625 0.390625 -0.46875 1.140625l-2.03125 -0.34375q0.21875 -1.03125 0.640625 -1.65625q0.421875 -0.625 1.1875 -0.96875q0.765625 -0.359375 1.703125 -0.359375q1.625 0 2.59375 1.03125q0.8125 0.84375 0.8125 1.90625q0 1.5 -1.65625 2.40625q0.984375 0.203125 1.578125 0.9375q0.59375 0.734375 0.59375 1.78125q0 1.5 -1.109375 2.578125q-1.09375 1.0625 -2.734375 1.0625q-1.5625 0 -2.59375 -0.890625q-1.015625 -0.90625 -1.171875 -2.359375zm10.2109375 -3.140625l-1.1875 -0.921875q0.5625 -0.625 1.171875 -1.203125q0.25 -0.234375 0.3125 -0.296875q-0.203125 -0.03125 -1.125 -0.265625q-0.65625 -0.15625 -0.875 -0.234375l0.46875 -1.375q1.015625 0.40625 1.828125 0.90625q-0.1875 -1.265625 -0.1875 -2.078125l1.390625 0q0 0.578125 -0.21875 2.09375q0.15625 -0.0625 0.671875 -0.296875q0.703125 -0.328125 1.296875 -0.546875l0.421875 1.40625q-0.875 0.203125 -2.015625 0.390625l0.9375 1.046875q0.28125 0.328125 0.453125 0.53125l-1.203125 0.78125l-1.046875 -1.734375q-0.484375 0.84375 -1.09375 1.796875zm13.0078125 6.1875l-2.203125 0l0 -4.234375q0 -1.34375 -0.140625 -1.734375q-0.140625 -0.40625 -0.453125 -0.625q-0.3125 -0.21875 -0.765625 -0.21875q-0.5625 0 -1.015625 0.3125q-0.453125 0.3125 -0.625 0.828125q-0.171875 0.515625 -0.171875 1.90625l0 3.765625l-2.1875 0l0 -8.296875l2.03125 0l0 1.21875q1.09375 -1.40625 2.734375 -1.40625q0.734375 0 1.328125 0.265625q0.609375 0.25 0.90625 0.65625q0.3125 0.40625 0.4375 0.921875q0.125 0.515625 0.125 1.484375l0 5.15625zm1.9765625 -5.40625l2.9375 -6.25l1.734375 0l2.859375 6.25l-2.21875 0l-1.546875 -3.828125l-1.53125 3.828125l-2.234375 0zm13.234375 8.78125l-1.515625 0q-1.1875 -1.8125 -1.8125 -3.75q-0.625 -1.953125 -0.625 -3.78125q0 -2.25 0.765625 -4.265625q0.671875 -1.75 1.703125 -3.234375l1.5 0q-1.0625 2.375 -1.46875 4.03125q-0.40625 1.65625 -0.40625 3.515625q0 1.28125 0.234375 2.625q0.25 1.34375 0.65625 2.5625q0.28125 0.796875 0.96875 2.296875zm6.828125 -3.375l-2.1875 0l0 -8.28125q-1.203125 1.125 -2.84375 1.671875l0 -2.0q0.859375 -0.28125 1.859375 -1.0625q1.015625 -0.78125 1.390625 -1.828125l1.78125 0l0 11.5zm2.5703125 0.203125l2.84375 -11.859375l1.65625 0l-2.875 11.859375l-1.625 0zm5.0859375 -3.25l2.125 -0.25q0.09375 0.8125 0.53125 1.25q0.453125 0.421875 1.09375 0.421875q0.671875 0 1.140625 -0.515625q0.46875 -0.515625 0.46875 -1.390625q0 -0.828125 -0.453125 -1.3125q-0.4375 -0.484375 -1.078125 -0.484375q-0.421875 0 -1.015625 0.15625l0.25 -1.78125q0.890625 0.015625 1.359375 -0.390625q0.46875 -0.40625 0.46875 -1.09375q0 -0.578125 -0.34375 -0.921875q-0.34375 -0.34375 -0.921875 -0.34375q-0.5625 0 -0.96875 0.390625q-0.390625 0.390625 -0.46875 1.140625l-2.03125 -0.34375q0.21875 -1.03125 0.640625 -1.65625q0.421875 -0.625 1.1875 -0.96875q0.765625 -0.359375 1.703125 -0.359375q1.625 0 2.59375 1.03125q0.8125 0.84375 0.8125 1.90625q0 1.5 -1.65625 2.40625q0.984375 0.203125 1.578125 0.9375q0.59375 0.734375 0.59375 1.78125q0 1.5 -1.109375 2.578125q-1.09375 1.0625 -2.734375 1.0625q-1.5625 0 -2.59375 -0.890625q-1.015625 -0.90625 -1.171875 -2.359375zm8.8359375 6.421875q0.640625 -1.390625 0.90625 -2.140625q0.265625 -0.734375 0.484375 -1.703125q0.234375 -0.984375 0.34375 -1.84375q0.109375 -0.875 0.109375 -1.796875q0 -1.859375 -0.40625 -3.515625q-0.390625 -1.65625 -1.453125 -4.03125l1.484375 0q1.1875 1.6875 1.828125 3.578125q0.65625 1.875 0.65625 3.8125q0 1.625 -0.515625 3.5q-0.578125 2.09375 -1.921875 4.140625l-1.515625 0zm5.921875 -0.140625l0 -14.6875l3.890625 0l0 1.71875l-1.796875 0l0 11.234375l1.796875 0l0 1.734375l-3.890625 0z" fill-rule="nonzero" /><path fill="#000000" d="m640.159 151.61642l0 -14.6875l3.890625 0l0 1.71875l-1.796875 0l0 11.234375l1.796875 0l0 1.734375l-3.890625 0zm4.796875 -6.28125l2.125 -0.25q0.09375 0.8125 0.53125 1.25q0.453125 0.421875 1.09375 0.421875q0.671875 0 1.140625 -0.515625q0.46875 -0.515625 0.46875 -1.390625q0 -0.828125 -0.453125 -1.3125q-0.4375 -0.484375 -1.078125 -0.484375q-0.421875 0 -1.015625 0.15625l0.25 -1.78125q0.890625 0.015625 1.359375 -0.390625q0.46875 -0.40625 0.46875 -1.09375q0 -0.578125 -0.34375 -0.921875q-0.34375 -0.34375 -0.921875 -0.34375q-0.5625 0 -0.96875 0.390625q-0.390625 0.390625 -0.46875 1.140625l-2.03125 -0.34375q0.21875 -1.03125 0.640625 -1.65625q0.421875 -0.625 1.1875 -0.96875q0.765625 -0.359375 1.703125 -0.359375q1.625 0 2.59375 1.03125q0.8125 0.84375 0.8125 1.90625q0 1.5 -1.65625 2.40625q0.984375 0.203125 1.578125 0.9375q0.59375 0.734375 0.59375 1.78125q0 1.5 -1.109375 2.578125q-1.09375 1.0625 -2.734375 1.0625q-1.5625 0 -2.59375 -0.890625q-1.015625 -0.90625 -1.171875 -2.359375zm10.2109375 -3.140625l-1.1875 -0.921875q0.5625 -0.625 1.171875 -1.203125q0.25 -0.234375 0.3125 -0.296875q-0.203125 -0.03125 -1.125 -0.265625q-0.65625 -0.15625 -0.875 -0.234375l0.46875 -1.375q1.015625 0.40625 1.828125 0.90625q-0.1875 -1.265625 -0.1875 -2.078125l1.390625 0q0 0.578125 -0.21875 2.09375q0.15625 -0.0625 0.671875 -0.296875q0.703125 -0.328125 1.296875 -0.546875l0.421875 1.40625q-0.875 0.203125 -2.015625 0.390625l0.9375 1.046875q0.28125 0.328125 0.453125 0.53125l-1.203125 0.78125l-1.046875 -1.734375q-0.484375 0.84375 -1.09375 1.796875zm13.0078125 6.1875l-2.203125 0l0 -4.234375q0 -1.34375 -0.140625 -1.734375q-0.140625 -0.40625 -0.453125 -0.625q-0.3125 -0.21875 -0.765625 -0.21875q-0.5625 0 -1.015625 0.3125q-0.453125 0.3125 -0.625 0.828125q-0.171875 0.515625 -0.171875 1.90625l0 3.765625l-2.1875 0l0 -8.296875l2.03125 0l0 1.21875q1.09375 -1.40625 2.734375 -1.40625q0.734375 0 1.328125 0.265625q0.609375 0.25 0.90625 0.65625q0.3125 0.40625 0.4375 0.921875q0.125 0.515625 0.125 1.484375l0 5.15625zm1.9765625 -5.40625l2.9375 -6.25l1.734375 0l2.859375 6.25l-2.21875 0l-1.546875 -3.828125l-1.53125 3.828125l-2.234375 0zm13.234375 8.78125l-1.515625 0q-1.1875 -1.8125 -1.8125 -3.75q-0.625 -1.953125 -0.625 -3.78125q0 -2.25 0.765625 -4.265625q0.671875 -1.75 1.703125 -3.234375l1.5 0q-1.0625 2.375 -1.46875 4.03125q-0.40625 1.65625 -0.40625 3.515625q0 1.28125 0.234375 2.625q0.25 1.34375 0.65625 2.5625q0.28125 0.796875 0.96875 2.296875zm6.828125 -3.375l-2.1875 0l0 -8.28125q-1.203125 1.125 -2.84375 1.671875l0 -2.0q0.859375 -0.28125 1.859375 -1.0625q1.015625 -0.78125 1.390625 -1.828125l1.78125 0l0 11.5zm2.5703125 0.203125l2.84375 -11.859375l1.65625 0l-2.875 11.859375l-1.625 0zm5.0859375 -3.25l2.125 -0.25q0.09375 0.8125 0.53125 1.25q0.453125 0.421875 1.09375 0.421875q0.671875 0 1.140625 -0.515625q0.46875 -0.515625 0.46875 -1.390625q0 -0.828125 -0.453125 -1.3125q-0.4375 -0.484375 -1.078125 -0.484375q-0.421875 0 -1.015625 0.15625l0.25 -1.78125q0.890625 0.015625 1.359375 -0.390625q0.46875 -0.40625 0.46875 -1.09375q0 -0.578125 -0.34375 -0.921875q-0.34375 -0.34375 -0.921875 -0.34375q-0.5625 0 -0.96875 0.390625q-0.390625 0.390625 -0.46875 1.140625l-2.03125 -0.34375q0.21875 -1.03125 0.640625 -1.65625q0.421875 -0.625 1.1875 -0.96875q0.765625 -0.359375 1.703125 -0.359375q1.625 0 2.59375 1.03125q0.8125 0.84375 0.8125 1.90625q0 1.5 -1.65625 2.40625q0.984375 0.203125 1.578125 0.9375q0.59375 0.734375 0.59375 1.78125q0 1.5 -1.109375 2.578125q-1.09375 1.0625 -2.734375 1.0625q-1.5625 0 -2.59375 -0.890625q-1.015625 -0.90625 -1.171875 -2.359375zm8.8359375 6.421875q0.640625 -1.390625 0.90625 -2.140625q0.265625 -0.734375 0.484375 -1.703125q0.234375 -0.984375 0.34375 -1.84375q0.109375 -0.875 0.109375 -1.796875q0 -1.859375 -0.40625 -3.515625q-0.390625 -1.65625 -1.453125 -4.03125l1.484375 0q1.1875 1.6875 1.828125 3.578125q0.65625 1.875 0.65625 3.8125q0 1.625 -0.515625 3.5q-0.578125 2.09375 -1.921875 4.140625l-1.515625 0zm5.875 -5.578125l2.203125 0l0 1.578125q0 0.953125 -0.171875 1.5q-0.15625 0.5625 -0.625 1.0q-0.453125 0.4375 -1.15625 0.6875l-0.421875 -0.90625q0.65625 -0.21875 0.9375 -0.609375q0.28125 -0.375 0.296875 -1.046875l-1.0625 0l0 -2.203125zm8.3359375 2.203125l0 -2.3125l-4.6875 0l0 -1.921875l4.96875 -7.265625l1.84375 0l0 7.265625l1.421875 0l0 1.921875l-1.421875 0l0 2.3125l-2.125 0zm0 -4.234375l0 -3.921875l-2.625 3.921875l2.625 0zm5.8359375 -1.953125l-1.1875 -0.921875q0.5625 -0.625 1.171875 -1.203125q0.25 -0.234375 0.3125 -0.296875q-0.203125 -0.03125 -1.125 -0.265625q-0.65625 -0.15625 -0.875 -0.234375l0.46875 -1.375q1.015625 0.40625 1.828125 0.90625q-0.1875 -1.265625 -0.1875 -2.078125l1.390625 0q0 0.578125 -0.21875 2.09375q0.15625 -0.0625 0.671875 -0.296875q0.703125 -0.328125 1.296875 -0.546875l0.421875 1.40625q-0.875 0.203125 -2.015625 0.390625l0.9375 1.046875q0.28125 0.328125 0.453125 0.53125l-1.203125 0.78125l-1.046875 -1.734375q-0.484375 0.84375 -1.09375 1.796875zm13.0078125 6.1875l-2.203125 0l0 -4.234375q0 -1.34375 -0.140625 -1.734375q-0.140625 -0.40625 -0.453125 -0.625q-0.3125 -0.21875 -0.765625 -0.21875q-0.5625 0 -1.015625 0.3125q-0.453125 0.3125 -0.625 0.828125q-0.171875 0.515625 -0.171875 1.90625l0 3.765625l-2.1875 0l0 -8.296875l2.03125 0l0 1.21875q1.09375 -1.40625 2.734375 -1.40625q0.734375 0 1.328125 0.265625q0.609375 0.25 0.90625 0.65625q0.3125 0.40625 0.4375 0.921875q0.125 0.515625 0.125 1.484375l0 5.15625zm1.9765625 -5.40625l2.9375 -6.25l1.734375 0l2.859375 6.25l-2.21875 0l-1.546875 -3.828125l-1.53125 3.828125l-2.234375 0zm13.234375 8.78125l-1.515625 0q-1.1875 -1.8125 -1.8125 -3.75q-0.625 -1.953125 -0.625 -3.78125q0 -2.25 0.765625 -4.265625q0.671875 -1.75 1.703125 -3.234375l1.5 0q-1.0625 2.375 -1.46875 4.03125q-0.40625 1.65625 -0.40625 3.515625q0 1.28125 0.234375 2.625q0.25 1.34375 0.65625 2.5625q0.28125 0.796875 0.96875 2.296875zm6.828125 -3.375l-2.1875 0l0 -8.28125q-1.203125 1.125 -2.84375 1.671875l0 -2.0q0.859375 -0.28125 1.859375 -1.0625q1.015625 -0.78125 1.390625 -1.828125l1.78125 0l0 11.5zm2.5703125 0.203125l2.84375 -11.859375l1.65625 0l-2.875 11.859375l-1.625 0zm5.0859375 -3.25l2.125 -0.25q0.09375 0.8125 0.53125 1.25q0.453125 0.421875 1.09375 0.421875q0.671875 0 1.140625 -0.515625q0.46875 -0.515625 0.46875 -1.390625q0 -0.828125 -0.453125 -1.3125q-0.4375 -0.484375 -1.078125 -0.484375q-0.421875 0 -1.015625 0.15625l0.25 -1.78125q0.890625 0.015625 1.359375 -0.390625q0.46875 -0.40625 0.46875 -1.09375q0 -0.578125 -0.34375 -0.921875q-0.34375 -0.34375 -0.921875 -0.34375q-0.5625 0 -0.96875 0.390625q-0.390625 0.390625 -0.46875 1.140625l-2.03125 -0.34375q0.21875 -1.03125 0.640625 -1.65625q0.421875 -0.625 1.1875 -0.96875q0.765625 -0.359375 1.703125 -0.359375q1.625 0 2.59375 1.03125q0.8125 0.84375 0.8125 1.90625q0 1.5 -1.65625 2.40625q0.984375 0.203125 1.578125 0.9375q0.59375 0.734375 0.59375 1.78125q0 1.5 -1.109375 2.578125q-1.09375 1.0625 -2.734375 1.0625q-1.5625 0 -2.59375 -0.890625q-1.015625 -0.90625 -1.171875 -2.359375zm8.8359375 6.421875q0.640625 -1.390625 0.90625 -2.140625q0.265625 -0.734375 0.484375 -1.703125q0.234375 -0.984375 0.34375 -1.84375q0.109375 -0.875 0.109375 -1.796875q0 -1.859375 -0.40625 -3.515625q-0.390625 -1.65625 -1.453125 -4.03125l1.484375 0q1.1875 1.6875 1.828125 3.578125q0.65625 1.875 0.65625 3.8125q0 1.625 -0.515625 3.5q-0.578125 2.09375 -1.921875 4.140625l-1.515625 0zm5.921875 -0.140625l0 -14.6875l3.890625 0l0 1.71875l-1.796875 0l0 11.234375l1.796875 0l0 1.734375l-3.890625 0z" fill-rule="nonzero" /><path stroke="#000000" stroke-width="3.0" stroke-linecap="butt" d="m21.375328 214.07349l0 46.19687" fill-rule="nonzero" /><path stroke="#000000" stroke-width="3.0" stroke-linecap="butt" d="m130.81627 214.07349l0 46.19687" fill-rule="nonzero" /><path stroke="#ff0000" stroke-width="3.0" stroke-linecap="butt" d="m240.25722 214.07349l0 46.19687" fill-rule="nonzero" /><path stroke="#000000" stroke-width="3.0" stroke-linecap="butt" d="m349.69815 214.07349l0 46.19687" fill-rule="nonzero" /><path stroke="#ff0000" stroke-width="3.0" stroke-linecap="butt" d="m459.1391 214.07349l0 46.19687" fill-rule="nonzero" /><path stroke="#000000" stroke-width="3.0" stroke-linecap="butt" d="m568.5801 214.07349l0 46.19687" fill-rule="nonzero" /><path stroke="#ff0000" stroke-width="3.0" stroke-linecap="butt" d="m678.021 214.07349l0 46.19687" fill-rule="nonzero" /><path stroke="#000000" stroke-width="3.0" stroke-linecap="butt" d="m787.4619 214.07349l0 46.19687" fill-rule="nonzero" /><path stroke="#000000" stroke-width="3.0" stroke-linecap="butt" d="m896.9029 214.07349l0 46.19687" fill-rule="nonzero" /><path stroke="#000000" stroke-width="3.0" stroke-linecap="butt" d="m19.87664 215.57217l878.5249 0" fill-rule="nonzero" /><path stroke="#000000" stroke-width="3.0" stroke-linecap="butt" d="m19.87664 258.77167l878.5249 0" fill-rule="nonzero" /><path fill="#000000" d="m76.03294 230.48567q1.9375 0 3.03125 1.375q1.296875 1.640625 1.296875 5.4375q0 3.796875 -1.3125 5.453125q-1.078125 1.375 -3.015625 1.375q-1.953125 0 -3.15625 -1.5q-1.1875 -1.5 -1.1875 -5.34375q0 -3.78125 1.3125 -5.4375q1.078125 -1.359375 3.03125 -1.359375zm0 2.125q-0.46875 0 -0.84375 0.296875q-0.359375 0.296875 -0.5625 1.0625q-0.25 0.984375 -0.25 3.328125q0 2.359375 0.234375 3.234375q0.234375 0.875 0.59375 1.171875q0.359375 0.296875 0.828125 0.296875q0.453125 0 0.8125 -0.296875q0.375 -0.296875 0.578125 -1.0625q0.265625 -0.984375 0.265625 -3.34375q0 -2.34375 -0.25 -3.21875q-0.234375 -0.875 -0.59375 -1.171875q-0.359375 -0.296875 -0.8125 -0.296875z" fill-rule="nonzero" /><path fill="#000000" d="m187.69264 243.89192l-2.5625 0l0 -9.640625q-1.40625 1.3125 -3.3125 1.9375l0 -2.328125q1.015625 -0.328125 2.1875 -1.234375q1.171875 -0.921875 1.609375 -2.140625l2.078125 0l0 13.40625z" fill-rule="nonzero" /><path fill="#000000" d="m299.22733 241.51692l0 2.375l-8.96875 0q0.140625 -1.34375 0.859375 -2.546875q0.734375 -1.21875 2.890625 -3.203125q1.734375 -1.625 2.125 -2.1875q0.53125 -0.796875 0.53125 -1.578125q0 -0.84375 -0.46875 -1.296875q-0.453125 -0.46875 -1.265625 -0.46875q-0.796875 0 -1.28125 0.484375q-0.46875 0.46875 -0.546875 1.59375l-2.546875 -0.25q0.234375 -2.109375 1.421875 -3.03125q1.203125 -0.921875 3.015625 -0.921875q1.96875 0 3.09375 1.0625q1.140625 1.0625 1.140625 2.65625q0 0.890625 -0.328125 1.71875q-0.3125 0.8125 -1.015625 1.703125q-0.46875 0.59375 -1.6875 1.703125q-1.203125 1.109375 -1.53125 1.484375q-0.3125 0.359375 -0.515625 0.703125l5.078125 0z" fill-rule="nonzero" /><path fill="#000000" d="m399.9339 240.34505l2.46875 -0.296875q0.125 0.953125 0.640625 1.453125q0.53125 0.5 1.265625 0.5q0.78125 0 1.328125 -0.59375q0.546875 -0.609375 0.546875 -1.640625q0 -0.953125 -0.53125 -1.515625q-0.515625 -0.578125 -1.25 -0.578125q-0.5 0 -1.1875 0.203125l0.28125 -2.09375q1.046875 0.03125 1.59375 -0.4375q0.546875 -0.484375 0.546875 -1.28125q0 -0.671875 -0.40625 -1.078125q-0.390625 -0.40625 -1.0625 -0.40625q-0.65625 0 -1.125 0.46875q-0.453125 0.453125 -0.5625 1.328125l-2.359375 -0.40625q0.25 -1.203125 0.734375 -1.921875q0.5 -0.734375 1.390625 -1.140625q0.890625 -0.421875 2.0 -0.421875q1.875 0 3.015625 1.203125q0.9375 0.984375 0.9375 2.21875q0 1.765625 -1.921875 2.8125q1.15625 0.234375 1.84375 1.09375q0.6875 0.859375 0.6875 2.0625q0 1.765625 -1.296875 3.015625q-1.28125 1.234375 -3.1875 1.234375q-1.8125 0 -3.015625 -1.046875q-1.1875 -1.046875 -1.375 -2.734375z" fill-rule="nonzero" /><path fill="#000000" d="m514.48425 243.89192l0 -2.6875l-5.4687805 0l0 -2.234375l5.7969055 -8.484375l2.15625 0l0 8.46875l1.65625 0l0 2.25l-1.65625 0l0 2.6875l-2.484375 0zm0 -4.9375l0 -4.5625l-3.0781555 4.5625l3.0781555 0z" fill-rule="nonzero" /><path fill="#000000" d="m618.9408 240.45442l2.546875 -0.265625q0.109375 0.875 0.640625 1.375q0.546875 0.5 1.25 0.5q0.796875 0 1.34375 -0.640625q0.5625 -0.65625 0.5625 -1.96875q0 -1.234375 -0.546875 -1.84375q-0.546875 -0.609375 -1.4375 -0.609375q-1.09375 0 -1.96875 0.96875l-2.078125 -0.296875l1.3125 -6.953125l6.765625 0l0 2.390625l-4.828125 0l-0.40625 2.265625q0.859375 -0.421875 1.75 -0.421875q1.703125 0 2.890625 1.25q1.1875 1.234375 1.1875 3.203125q0 1.65625 -0.953125 2.9375q-1.3125 1.78125 -3.625 1.78125q-1.84375 0 -3.015625 -1.0q-1.15625 -1.0 -1.390625 -2.671875z" fill-rule="nonzero" /><path fill="#000000" d="m737.02234 233.8138l-2.484375 0.265625q-0.09375 -0.765625 -0.484375 -1.125q-0.375 -0.375 -0.984375 -0.375q-0.8125 0 -1.375 0.734375q-0.546875 0.734375 -0.703125 3.03125q0.96875 -1.125 2.390625 -1.125q1.59375 0 2.734375 1.21875q1.140625 1.21875 1.140625 3.15625q0 2.046875 -1.203125 3.296875q-1.1875 1.234375 -3.078125 1.234375q-2.03125 0 -3.328125 -1.578125q-1.296875 -1.578125 -1.296875 -5.15625q0 -3.671875 1.34375 -5.28125q1.359375 -1.625 3.53125 -1.625q1.53125 0 2.515625 0.859375q1.0 0.84375 1.28125 2.46875zm-5.8125 5.578125q0 1.25 0.578125 1.9375q0.578125 0.671875 1.3125 0.671875q0.71875 0 1.1875 -0.546875q0.46875 -0.5625 0.46875 -1.828125q0 -1.3125 -0.515625 -1.90625q-0.5 -0.609375 -1.265625 -0.609375q-0.734375 0 -1.25 0.578125q-0.515625 0.578125 -0.515625 1.703125z" fill-rule="nonzero" /><path fill="#000000" d="m837.79144 233.09505l0 -2.375l8.75 0l0 1.859375q-1.078125 1.0625 -2.203125 3.0625q-1.125 1.984375 -1.71875 4.234375q-0.578125 2.25 -0.5625 4.015625l-2.46875 0q0.0625 -2.765625 1.140625 -5.640625q1.078125 -2.890625 2.875 -5.15625l-5.8125 0z" fill-rule="nonzero" /><path fill="#000000" fill-opacity="0.0" d="m372.46457 70.85827l-169.73228 50.204727" fill-rule="evenodd" /><path stroke="#0000ff" stroke-width="4.0" stroke-linejoin="round" stroke-linecap="butt" d="m372.46457 70.85827l-146.71796 43.39736" fill-rule="evenodd" /><path fill="#0000ff" stroke="#0000ff" stroke-width="4.0" stroke-linecap="butt" d="m223.87263 107.920044l-15.532898 11.484329l19.280869 1.1868515z" fill-rule="evenodd" /><path fill="#000000" fill-opacity="0.0" d="m543.25195 71.46457l1.2283325 48.44094" fill-rule="evenodd" /><path stroke="#0000ff" stroke-width="4.0" stroke-linejoin="round" stroke-linecap="butt" d="m543.25195 71.46457l0.6199951 24.448654" fill-rule="evenodd" /><path fill="#0000ff" stroke="#0000ff" stroke-width="4.0" stroke-linecap="butt" d="m537.26715 96.0807l7.0649414 17.97908l6.1446533 -18.314041z" fill-rule="evenodd" /><path fill="#000000" fill-opacity="0.0" d="m202.88715 164.73228l-125.35434 51.46457" fill-rule="evenodd" /><path stroke="#0000ff" stroke-width="4.0" stroke-linejoin="round" stroke-linecap="butt" d="m202.88715 164.73228l-103.1526 42.34958" fill-rule="evenodd" /><path fill="#0000ff" stroke="#0000ff" stroke-width="4.0" stroke-linecap="butt" d="m97.22529 200.96999l-14.28302 13.005997l19.301529 -0.78222656z" fill-rule="evenodd" /><path fill="#000000" fill-opacity="0.0" d="m374.28085 164.73228l-77.10239 50.803146" fill-rule="evenodd" /><path stroke="#0000ff" stroke-width="4.0" stroke-linejoin="round" stroke-linecap="butt" d="m374.28085 164.73228l-57.061676 37.59822" fill-rule="evenodd" /><path fill="#0000ff" stroke="#0000ff" stroke-width="4.0" stroke-linecap="butt" d="m313.584 196.81352l-11.522614 15.504532l18.792938 -4.470566z" fill-rule="evenodd" /><path fill="#000000" fill-opacity="0.0" d="m544.46454 165.33858l-28.062988 48.346466" fill-rule="evenodd" /><path stroke="#0000ff" stroke-width="4.0" stroke-linejoin="round" stroke-linecap="butt" d="m544.46454 165.33858l-16.014648 27.589813" fill-rule="evenodd" /><path fill="#0000ff" stroke="#0000ff" stroke-width="4.0" stroke-linecap="butt" d="m522.73584 189.61163l-3.3986816 19.016037l14.826782 -12.382507z" fill-rule="evenodd" /><path fill="#000000" fill-opacity="0.0" d="m715.25195 165.33858l18.48822 49.29135" fill-rule="evenodd" /><path stroke="#0000ff" stroke-width="4.0" stroke-linejoin="round" stroke-linecap="butt" d="m715.25195 165.33858l10.059631 26.820038" fill-rule="evenodd" /><path fill="#0000ff" stroke="#0000ff" stroke-width="4.0" stroke-linecap="butt" d="m719.12555 194.4789l12.560974 14.675888l-0.18878174 -19.316452z" fill-rule="evenodd" /></g></g></svg>