<svg version="1.1" viewBox="0.0 0.0 421.15485564304464 282.6929133858268" fill="none" stroke="none" stroke-linecap="square" stroke-miterlimit="10" xmlns:xlink="http://www.w3.org/1999/xlink" xmlns="http://www.w3.org/2000/svg"><clipPath id="p.0"><path d="m0 0l421.15485 0l0 282.6929l-421.15485 0l0 -282.6929z" clip-rule="nonzero"/></clipPath><g clip-path="url(#p.0)"><path fill="#000000" fill-opacity="0.0" d="m0 0l421.15485 0l0 282.6929l-421.15485 0z" fill-rule="evenodd"/><path stroke="#000000" stroke-width="4.0" stroke-linecap="butt" d="m129.43045 119.026245l0 45.595795" fill-rule="nonzero"/><path stroke="#000000" stroke-width="4.0" stroke-linecap="butt" d="m169.62466 119.026245l0 45.595795" fill-rule="nonzero"/><path stroke="#000000" stroke-width="4.0" stroke-linecap="butt" d="m209.8189 119.026245l0 45.595795" fill-rule="nonzero"/><path stroke="#000000" stroke-width="4.0" stroke-linecap="butt" d="m250.01312 119.026245l0 45.595795" fill-rule="nonzero"/><path stroke="#000000" stroke-width="4.0" stroke-linecap="butt" d="m290.20734 119.026245l0 45.595795" fill-rule="nonzero"/><path stroke="#000000" stroke-width="4.0" stroke-linecap="butt" d="m127.43044 121.026245l164.77689 0" fill-rule="nonzero"/><path stroke="#000000" stroke-width="4.0" stroke-linecap="butt" d="m127.43044 162.62204l164.77689 0" fill-rule="nonzero"/><path stroke="#000000" stroke-width="4.0" stroke-linecap="butt" d="m47.402885 206.15486l0 45.595795" fill-rule="nonzero"/><path stroke="#000000" stroke-width="4.0" stroke-linecap="butt" d="m87.597115 206.15486l0 45.595795" fill-rule="nonzero"/><path stroke="#000000" stroke-width="4.0" stroke-linecap="butt" d="m128.50787 206.15486l0 45.595795" fill-rule="nonzero"/><path stroke="#000000" stroke-width="4.0" stroke-linecap="butt" d="m169.41864 206.15486l0 45.595795" fill-rule="nonzero"/><path stroke="#000000" stroke-width="4.0" stroke-linecap="butt" d="m210.32939 206.15486l0 45.595795" fill-rule="nonzero"/><path stroke="#000000" stroke-width="4.0" stroke-linecap="butt" d="m251.24016 206.15486l0 45.595795" fill-rule="nonzero"/><path stroke="#000000" stroke-width="4.0" stroke-linecap="butt" d="m292.1509 206.15486l0 45.595795" fill-rule="nonzero"/><path stroke="#000000" stroke-width="4.0" stroke-linecap="butt" d="m333.06168 206.15486l0 45.595795" fill-rule="nonzero"/><path stroke="#000000" stroke-width="4.0" stroke-linecap="butt" d="m373.97244 206.15486l0 45.595795" fill-rule="nonzero"/><path stroke="#000000" stroke-width="4.0" stroke-linecap="butt" d="m45.402885 208.15486l330.56955 0" fill-rule="nonzero"/><path stroke="#000000" stroke-width="4.0" stroke-linecap="butt" d="m45.402885 249.75066l330.56955 0" fill-rule="nonzero"/><path stroke="#000000" stroke-width="4.0" stroke-linecap="butt" d="m170.49475 30.301838l0 45.5958" fill-rule="nonzero"/><path stroke="#000000" stroke-width="4.0" stroke-linecap="butt" d="m210.68898 30.301838l0 45.5958" fill-rule="nonzero"/><path stroke="#000000" stroke-width="4.0" stroke-linecap="butt" d="m250.88321 30.301838l0 45.5958" fill-rule="nonzero"/><path stroke="#000000" stroke-width="4.0" stroke-linecap="butt" d="m168.49475 32.301838l84.38846 0" fill-rule="nonzero"/><path stroke="#000000" stroke-width="4.0" stroke-linecap="butt" d="m168.49475 73.89764l84.38846 0" fill-rule="nonzero"/><path fill="#000000" fill-opacity="0.0" d="m192.85826 75.0l-44.188965 45.259842" fill-rule="evenodd"/><path stroke="#0000ff" stroke-width="3.0" stroke-linejoin="round" stroke-linecap="butt" d="m192.85826 75.0l-31.614334 32.380463" fill-rule="evenodd"/><path fill="#0000ff" stroke="#0000ff" stroke-width="3.0" stroke-linecap="butt" d="m157.6984 103.91881l-5.9652863 13.202972l13.056381 -6.2796555z" fill-rule="evenodd"/><path fill="#000000" fill-opacity="0.0" d="m230.76903 75.82415l-0.31495667 45.196846" fill-rule="evenodd"/><path stroke="#0000ff" stroke-width="3.0" stroke-linejoin="round" stroke-linecap="butt" d="m230.76903 75.82415l-0.18952942 27.197289" fill-rule="evenodd"/><path fill="#0000ff" stroke="#0000ff" stroke-width="3.0" stroke-linecap="butt" d="m225.62442 102.98691l4.860214 13.648491l5.049942 -13.579437z" fill-rule="evenodd"/><path fill="#000000" fill-opacity="0.0" d="m151.72966 161.28346l-82.48819 44.755905" fill-rule="evenodd"/><path stroke="#0000ff" stroke-width="3.0" stroke-linejoin="round" stroke-linecap="butt" d="m151.72966 161.28346l-66.66695 36.171707" fill-rule="evenodd"/><path fill="#0000ff" stroke="#0000ff" stroke-width="3.0" stroke-linecap="butt" d="m82.699585 193.09978l-9.603264 10.848053l14.329521 -2.1372375z" fill-rule="evenodd"/><path fill="#000000" fill-opacity="0.0" d="m190.71129 161.28346l-41.543304 46.4252" fill-rule="evenodd"/><path stroke="#0000ff" stroke-width="3.0" stroke-linejoin="round" stroke-linecap="butt" d="m190.71129 161.28346l-29.540207 33.011566" fill-rule="evenodd"/><path fill="#0000ff" stroke="#0000ff" stroke-width="3.0" stroke-linecap="butt" d="m157.47847 190.9907l-5.3859253 13.449722l12.771164 -6.8410797z" fill-rule="evenodd"/><path fill="#000000" fill-opacity="0.0" d="m230.4567 162.04724l1.1338501 45.637802" fill-rule="evenodd"/><path stroke="#0000ff" stroke-width="3.0" stroke-linejoin="round" stroke-linecap="butt" d="m230.4567 162.04724l0.68678284 27.643356" fill-rule="evenodd"/><path fill="#0000ff" stroke="#0000ff" stroke-width="3.0" stroke-linecap="butt" d="m226.18982 189.81366l5.291809 13.48703l4.6155243 -13.73317z" fill-rule="evenodd"/><path fill="#000000" fill-opacity="0.0" d="m270.2021 161.28346l42.992126 45.5748" fill-rule="evenodd"/><path stroke="#0000ff" stroke-width="3.0" stroke-linejoin="round" stroke-linecap="butt" d="m270.2021 161.28346l30.640625 32.481308" fill-rule="evenodd"/><path fill="#0000ff" stroke="#0000ff" stroke-width="3.0" stroke-linecap="butt" d="m297.23822 197.165l12.946564 6.5030365l-5.7375793 -13.303513z" fill-rule="evenodd"/></g></svg>