<svg version="1.1" viewBox="0.0 0.0 960.0 600.0" fill="none" stroke="none" stroke-linecap="square" stroke-miterlimit="10" xmlns:xlink="http://www.w3.org/1999/xlink" xmlns="http://www.w3.org/2000/svg"><clipPath id="p.0"><path d="m0 0l960.0 0l0 600.0l-960.0 0l0 -600.0z" clip-rule="nonzero"/></clipPath><g clip-path="url(#p.0)"><path fill="#000000" fill-opacity="0.0" d="m0 0l960.0 0l0 600.0l-960.0 0z" fill-rule="evenodd"/><path stroke="#000000" stroke-width="4.0" stroke-linecap="butt" d="m399.61154 119.78215l0 45.59581" fill-rule="nonzero"/><path stroke="#000000" stroke-width="4.0" stroke-linecap="butt" d="m439.8058 119.78215l0 45.59581" fill-rule="nonzero"/><path stroke="#000000" stroke-width="4.0" stroke-linecap="butt" d="m480.0 119.78215l0 45.59581" fill-rule="nonzero"/><path stroke="#000000" stroke-width="4.0" stroke-linecap="butt" d="m520.1942 119.78215l0 45.59581" fill-rule="nonzero"/><path stroke="#000000" stroke-width="4.0" stroke-linecap="butt" d="m560.3884 119.78215l0 45.59581" fill-rule="nonzero"/><path stroke="#000000" stroke-width="4.0" stroke-linecap="butt" d="m397.61154 121.78215l164.77689 0" fill-rule="nonzero"/><path stroke="#000000" stroke-width="4.0" stroke-linecap="butt" d="m397.61154 163.37796l164.77689 0" fill-rule="nonzero"/><path stroke="#000000" stroke-width="4.0" stroke-linecap="butt" d="m316.7139 206.14961l0 45.595795" fill-rule="nonzero"/><path stroke="#000000" stroke-width="4.0" stroke-linecap="butt" d="m356.90814 206.14961l0 45.595795" fill-rule="nonzero"/><path stroke="#000000" stroke-width="4.0" stroke-linecap="butt" d="m397.8189 206.14961l0 45.595795" fill-rule="nonzero"/><path stroke="#000000" stroke-width="4.0" stroke-linecap="butt" d="m438.72964 206.14961l0 45.595795" fill-rule="nonzero"/><path stroke="#000000" stroke-width="4.0" stroke-linecap="butt" d="m479.6404 206.14961l0 45.595795" fill-rule="nonzero"/><path stroke="#000000" stroke-width="4.0" stroke-linecap="butt" d="m520.5512 206.14961l0 45.595795" fill-rule="nonzero"/><path stroke="#000000" stroke-width="4.0" stroke-linecap="butt" d="m561.4619 206.14961l0 45.595795" fill-rule="nonzero"/><path stroke="#000000" stroke-width="4.0" stroke-linecap="butt" d="m602.3727 206.14961l0 45.595795" fill-rule="nonzero"/><path stroke="#000000" stroke-width="4.0" stroke-linecap="butt" d="m643.28345 206.14961l0 45.595795" fill-rule="nonzero"/><path stroke="#000000" stroke-width="4.0" stroke-linecap="butt" d="m314.7139 208.14961l330.56955 0" fill-rule="nonzero"/><path stroke="#000000" stroke-width="4.0" stroke-linecap="butt" d="m314.7139 249.7454l330.56955 0" fill-rule="nonzero"/><path stroke="#000000" stroke-width="4.0" stroke-linecap="butt" d="m439.8058 37.23622l0 45.595802" fill-rule="nonzero"/><path stroke="#000000" stroke-width="4.0" stroke-linecap="butt" d="m480.0 37.23622l0 45.595802" fill-rule="nonzero"/><path stroke="#000000" stroke-width="4.0" stroke-linecap="butt" d="m520.1942 37.23622l0 45.595802" fill-rule="nonzero"/><path stroke="#000000" stroke-width="4.0" stroke-linecap="butt" d="m437.8058 39.23622l84.38843 0" fill-rule="nonzero"/><path stroke="#000000" stroke-width="4.0" stroke-linecap="butt" d="m437.8058 80.83202l84.38843 0" fill-rule="nonzero"/><path fill="#000000" fill-opacity="0.0" d="m461.65616 79.490814l-42.04724 42.803146" fill-rule="evenodd"/><path stroke="#0000ff" stroke-width="3.0" stroke-linejoin="round" stroke-linecap="butt" d="m461.65616 79.490814l-29.433197 29.962349" fill-rule="evenodd"/><path fill="#0000ff" stroke="#0000ff" stroke-width="3.0" stroke-linecap="butt" d="m428.68802 105.98066l-6.0056763 13.184639l13.075531 -6.2396317z" fill-rule="evenodd"/><path fill="#000000" fill-opacity="0.0" d="m500.6378 79.490814l0.7559204 43.55905" fill-rule="evenodd"/><path stroke="#0000ff" stroke-width="3.0" stroke-linejoin="round" stroke-linecap="butt" d="m500.6378 79.490814l0.443573 25.56176" fill-rule="evenodd"/><path fill="#0000ff" stroke="#0000ff" stroke-width="3.0" stroke-linecap="butt" d="m496.12692 105.13856l5.190674 13.526268l4.718231 -13.698227z" fill-rule="evenodd"/><path fill="#000000" fill-opacity="0.0" d="m421.91077 162.03937l-83.3071 46.61418" fill-rule="evenodd"/><path stroke="#0000ff" stroke-width="3.0" stroke-linejoin="round" stroke-linecap="butt" d="m421.91077 162.03937l-67.59897 37.824738" fill-rule="evenodd"/><path fill="#0000ff" stroke="#0000ff" stroke-width="3.0" stroke-linecap="butt" d="m351.89218 195.53984l-9.461212 10.972153l14.300476 -2.3236084z" fill-rule="evenodd"/><path fill="#000000" fill-opacity="0.0" d="m460.8924 162.03937l-42.04724 47.40158" fill-rule="evenodd"/><path stroke="#0000ff" stroke-width="3.0" stroke-linejoin="round" stroke-linecap="butt" d="m460.8924 162.03937l-30.10257 33.935883" fill-rule="evenodd"/><path fill="#0000ff" stroke="#0000ff" stroke-width="3.0" stroke-linecap="butt" d="m427.08286 192.68701l-5.3273926 13.473007l12.7413025 -6.8965454z" fill-rule="evenodd"/><path fill="#000000" fill-opacity="0.0" d="m500.6378 162.80315l0.7559204 46.61418" fill-rule="evenodd"/><path stroke="#0000ff" stroke-width="3.0" stroke-linejoin="round" stroke-linecap="butt" d="m500.6378 162.80315l0.4640503 28.616531" fill-rule="evenodd"/><path fill="#0000ff" stroke="#0000ff" stroke-width="3.0" stroke-linecap="butt" d="m496.1473 191.50003l5.175293 13.532166l4.733795 -13.692856z" fill-rule="evenodd"/><path fill="#000000" fill-opacity="0.0" d="m540.3832 162.03937l42.80316 47.40158" fill-rule="evenodd"/><path stroke="#0000ff" stroke-width="3.0" stroke-linejoin="round" stroke-linecap="butt" d="m540.3832 162.03937l30.739746 34.04216" fill-rule="evenodd"/><path fill="#0000ff" stroke="#0000ff" stroke-width="3.0" stroke-linecap="butt" d="m567.44525 199.40245l12.801819 6.7834625l-5.446411 -13.425308z" fill-rule="evenodd"/></g></svg>