<svg version="1.1" viewBox="0.0 0.0 420.9790026246719 262.1653543307087" fill="none" stroke="none" stroke-linecap="square" stroke-miterlimit="10" xmlns:xlink="http://www.w3.org/1999/xlink" xmlns="http://www.w3.org/2000/svg"><clipPath id="p.0"><path d="m0 0l420.979 0l0 262.16534l-420.979 0l0 -262.16534z" clip-rule="nonzero"/></clipPath><g clip-path="url(#p.0)"><path fill="#000000" fill-opacity="0.0" d="m0 0l420.979 0l0 262.16534l-420.979 0z" fill-rule="evenodd"/><path stroke="#000000" stroke-width="3.0" stroke-linecap="butt" d="m129.94357 109.826775l0 44.593178" fill-rule="nonzero"/><path stroke="#000000" stroke-width="3.0" stroke-linecap="butt" d="m170.1378 109.826775l0 44.593178" fill-rule="nonzero"/><path stroke="#000000" stroke-width="3.0" stroke-linecap="butt" d="m210.33202 109.826775l0 44.593178" fill-rule="nonzero"/><path stroke="#000000" stroke-width="3.0" stroke-linecap="butt" d="m250.52625 109.826775l0 44.593178" fill-rule="nonzero"/><path stroke="#000000" stroke-width="3.0" stroke-linecap="butt" d="m290.72046 109.826775l0 44.593178" fill-rule="nonzero"/><path stroke="#000000" stroke-width="3.0" stroke-linecap="butt" d="m128.44489 111.32546l163.77426 0" fill-rule="nonzero"/><path stroke="#000000" stroke-width="3.0" stroke-linecap="butt" d="m128.44489 152.92126l163.77426 0" fill-rule="nonzero"/><path stroke="#000000" stroke-width="3.0" stroke-linecap="butt" d="m47.91601 196.95538l0 44.59317" fill-rule="nonzero"/><path stroke="#000000" stroke-width="3.0" stroke-linecap="butt" d="m88.11024 196.95538l0 44.59317" fill-rule="nonzero"/><path stroke="#000000" stroke-width="3.0" stroke-linecap="butt" d="m129.021 196.95538l0 44.59317" fill-rule="nonzero"/><path stroke="#000000" stroke-width="3.0" stroke-linecap="butt" d="m169.93176 196.95538l0 44.59317" fill-rule="nonzero"/><path stroke="#000000" stroke-width="3.0" stroke-linecap="butt" d="m210.84251 196.95538l0 44.59317" fill-rule="nonzero"/><path stroke="#000000" stroke-width="3.0" stroke-linecap="butt" d="m251.75328 196.95538l0 44.59317" fill-rule="nonzero"/><path stroke="#000000" stroke-width="3.0" stroke-linecap="butt" d="m292.66403 196.95538l0 44.59317" fill-rule="nonzero"/><path stroke="#000000" stroke-width="3.0" stroke-linecap="butt" d="m333.5748 196.95538l0 44.59317" fill-rule="nonzero"/><path stroke="#000000" stroke-width="3.0" stroke-linecap="butt" d="m374.48557 196.95538l0 44.59317" fill-rule="nonzero"/><path stroke="#000000" stroke-width="3.0" stroke-linecap="butt" d="m46.417324 198.45407l329.56693 0" fill-rule="nonzero"/><path stroke="#000000" stroke-width="3.0" stroke-linecap="butt" d="m46.417324 240.04987l329.56693 0" fill-rule="nonzero"/><path stroke="#000000" stroke-width="3.0" stroke-linecap="butt" d="m171.00656 21.868767l0 44.593178" fill-rule="nonzero"/><path stroke="#000000" stroke-width="3.0" stroke-linecap="butt" d="m211.20079 21.868767l0 44.593178" fill-rule="nonzero"/><path stroke="#000000" stroke-width="3.0" stroke-linecap="butt" d="m251.39502 21.868767l0 44.593178" fill-rule="nonzero"/><path stroke="#000000" stroke-width="3.0" stroke-linecap="butt" d="m169.50787 23.367455l83.38583 0" fill-rule="nonzero"/><path stroke="#000000" stroke-width="3.0" stroke-linecap="butt" d="m169.50787 64.96326l83.38583 0" fill-rule="nonzero"/><path fill="#000000" fill-opacity="0.0" d="m193.37007 66.06562l-44.188965 45.259842" fill-rule="evenodd"/><path stroke="#0000ff" stroke-width="3.0" stroke-linejoin="round" stroke-linecap="butt" d="m193.37007 66.06562l-31.614334 32.380463" fill-rule="evenodd"/><path fill="#0000ff" stroke="#0000ff" stroke-width="3.0" stroke-linecap="butt" d="m158.2102 94.98443l-5.9652863 13.202965l13.056381 -6.279648z" fill-rule="evenodd"/><path fill="#000000" fill-opacity="0.0" d="m231.04724 65.62467l-0.09448242 46.456696" fill-rule="evenodd"/><path stroke="#0000ff" stroke-width="3.0" stroke-linejoin="round" stroke-linecap="butt" d="m231.04724 65.62467l-0.057876587 28.456734" fill-rule="evenodd"/><path fill="#0000ff" stroke="#0000ff" stroke-width="3.0" stroke-linecap="butt" d="m226.03418 94.07133l4.92749 13.624336l4.9828796 -13.604179z" fill-rule="evenodd"/><path fill="#000000" fill-opacity="0.0" d="m150.4029 152.61417l-82.92914 44.44095" fill-rule="evenodd"/><path stroke="#0000ff" stroke-width="3.0" stroke-linejoin="round" stroke-linecap="butt" d="m150.4029 152.61417l-67.06367 35.938797" fill-rule="evenodd"/><path fill="#0000ff" stroke="#0000ff" stroke-width="3.0" stroke-linecap="butt" d="m80.99868 184.18538l-9.659294 10.798187l14.340393 -2.0630188z" fill-rule="evenodd"/><path fill="#000000" fill-opacity="0.0" d="m192.33989 152.61417l-42.64566 45.385834" fill-rule="evenodd"/><path stroke="#0000ff" stroke-width="3.0" stroke-linejoin="round" stroke-linecap="butt" d="m192.33989 152.61417l-30.3199 32.268097" fill-rule="evenodd"/><path fill="#0000ff" stroke="#0000ff" stroke-width="3.0" stroke-linecap="butt" d="m158.40883 181.4891l-5.711426 13.314743l12.933762 -6.5284576z" fill-rule="evenodd"/><path fill="#000000" fill-opacity="0.0" d="m230.96982 152.34645l1.1338501 45.637802" fill-rule="evenodd"/><path stroke="#0000ff" stroke-width="3.0" stroke-linejoin="round" stroke-linecap="butt" d="m230.96982 152.34645l0.68678284 27.643356" fill-rule="evenodd"/><path fill="#0000ff" stroke="#0000ff" stroke-width="3.0" stroke-linecap="butt" d="m226.70294 180.11288l5.291809 13.487015l4.6155243 -13.73317z" fill-rule="evenodd"/><path fill="#000000" fill-opacity="0.0" d="m272.33203 152.22572l41.385803 44.944885" fill-rule="evenodd"/><path stroke="#0000ff" stroke-width="3.0" stroke-linejoin="round" stroke-linecap="butt" d="m272.33203 152.22572l29.192963 31.703491" fill-rule="evenodd"/><path fill="#0000ff" stroke="#0000ff" stroke-width="3.0" stroke-linecap="butt" d="m297.8798 187.28577l12.867279 6.6585693l-5.576874 -13.371674z" fill-rule="evenodd"/></g></svg>